<svg xmlns="http://www.w3.org/2000/svg" xmlns:xlink="http://www.w3.org/1999/xlink" width="49.658" height="52.658" viewBox="0 0 49.658 52.658">
  <defs>
    <filter id="Ellipse_579" x="0" y="0" width="49.658" height="52.658" filterUnits="userSpaceOnUse">
      <feOffset dy="3" input="SourceAlpha"/>
      <feGaussianBlur result="blur"/>
      <feFlood flood-color="#16a9b1"/>
      <feComposite operator="in" in2="blur"/>
      <feComposite in="SourceGraphic"/>
    </filter>
  </defs>
  <g id="aspiration" transform="translate(-3201.34 3437)">
    <g transform="matrix(1, 0, 0, 1, 3201.34, -3437)" filter="url(#Ellipse_579)">
      <circle id="Ellipse_579-2" data-name="Ellipse 579" cx="24.829" cy="24.829" r="24.829" fill="#fff"/>
    </g>
    <g id="icons-01" transform="translate(3202.319 -3436.836)">
      <path id="Path_13194" data-name="Path 13194" d="M47.274,34.144a9.812,9.812,0,0,0-9.005-7.96A10.258,10.258,0,0,0,28.208,32.64a11.3,11.3,0,0,0,3,12.643,51.323,51.323,0,0,1,.491,6.923.472.472,0,0,0,.046.176v.028a.406.406,0,0,0,.023.046.477.477,0,0,0,.454.282c1.129,0,2.258,0,3.387-.042a.521.521,0,0,0,0,.292,2.752,2.752,0,0,0,2.989,2.1,3.552,3.552,0,0,0,1.86-.717,3.507,3.507,0,0,0,1.166-1.615.5.5,0,0,0,.032-.273c.486-.028.981-.056,1.472-.093a.342.342,0,0,0,.153-.042h.06a.447.447,0,0,0,.3-.454c0-2.17-.218-4.341-.236-6.511,2.369-3.1,4.688-7.284,3.878-11.231h0ZM32.586,48.281a.449.449,0,0,0,.157,0q4.7-.451,9.413-.676l-.051,1.439c-3.161.18-6.321.407-9.482.454a8.952,8.952,0,0,0-.042-1.212h0Zm9.482,2.633q-4.672.2-9.348.315a5.851,5.851,0,0,0-.023-.648c3.161-.056,6.266-.282,9.394-.454l-.028.782Zm-5.419,1.8v-.032q1.61-.042,3.225-.116a4.265,4.265,0,0,1-.653.671,3.179,3.179,0,0,1-1.212.694l-.069.028a1.636,1.636,0,0,1-.833-.426,1.6,1.6,0,0,1-.454-.819h0Z" transform="translate(-12.347 -10.804)" fill="#f9cd16"/>
      <g id="Group_14828" data-name="Group 14828" transform="translate(4.397 6.06)">
        <path id="Path_13195" data-name="Path 13195" d="M45.274,32.814a9.812,9.812,0,0,0-9.005-7.96A10.258,10.258,0,0,0,26.208,31.31a11.3,11.3,0,0,0,3,12.643,51.323,51.323,0,0,1,.491,6.923.472.472,0,0,0,.046.176v.028a.406.406,0,0,0,.023.046.477.477,0,0,0,.454.282c1.129,0,2.258,0,3.387-.042a.521.521,0,0,0,0,.292,2.752,2.752,0,0,0,2.989,2.1,3.552,3.552,0,0,0,1.86-.717,3.507,3.507,0,0,0,1.166-1.615.5.5,0,0,0,.032-.273c.486-.028.981-.056,1.472-.093a.342.342,0,0,0,.153-.042h.06a.447.447,0,0,0,.3-.454c0-2.17-.218-4.341-.236-6.511,2.369-3.1,4.688-7.284,3.878-11.231h0ZM30.586,46.951a.449.449,0,0,0,.157,0q4.7-.451,9.413-.676l-.051,1.439c-3.161.18-6.321.407-9.482.454a8.951,8.951,0,0,0-.042-1.212h0ZM33.1,34.23l.042.051h0A9.682,9.682,0,0,1,33.6,35.97a2.483,2.483,0,0,1-1.208-.037c-1.879-.754.065-2.758.727-1.7Zm1.671,2.5h0A11.925,11.925,0,0,0,36.9,35.586l.028-.023h0a.3.3,0,0,0,.111-.046l.093-.051c.583,3.221,0,6.71-.227,9.954q-1.319.083-2.642.19v-.042c.255-2.712.833-5.933.518-8.844h-.014Zm2.818-3.462c-.032-.268.241-1.615.833-1.069.4.366-.213,1.148-.454,1.407-.079.083-.162.153-.25.231h0a2.652,2.652,0,0,1-.12-.569h-.014Zm2.476,16.317q-4.672.2-9.348.315a5.85,5.85,0,0,0-.023-.648c3.161-.056,6.266-.282,9.394-.454l-.028.782ZM26.976,32.212a9.242,9.242,0,0,1,9.292-6.289,8.809,8.809,0,0,1,5.609,2.605.618.618,0,0,0,.074.18,10.48,10.48,0,0,1,.722,9.931c-1.032,2.42-3.054,3.716-2.716,6.53v.079l-1.6.093h0v-.028c.745-3.614,1.356-7.2.185-10.787h0a3.4,3.4,0,0,0,.847-1.148,1.546,1.546,0,0,0-.6-2.166h0a1.6,1.6,0,0,0-1.189.028,1.62,1.62,0,0,0-.851.838,2.925,2.925,0,0,0,.093,2.379l-.31.167h0a.678.678,0,0,0-.13.065,12.9,12.9,0,0,1-1.749.976,10.093,10.093,0,0,0-.454-1.717.449.449,0,0,0-.074-.13.6.6,0,0,0-.056-.125c-1.3-2.059-3.855-.143-3.387,1.883a2.147,2.147,0,0,0,2.286,1.5,4,4,0,0,0,.777-.06c.259,2.818-.292,5.937-.509,8.58a.564.564,0,0,0,0,.125c-.833.069-1.666.125-2.5.2a.481.481,0,0,0-.222.069,19.747,19.747,0,0,0-.315-2.332.475.475,0,0,0-.153-.273.551.551,0,0,0-.106-.143,10.408,10.408,0,0,1-2.966-11.023h0Zm7.677,19.173v-.032q1.61-.042,3.225-.116a4.266,4.266,0,0,1-.653.671,3.179,3.179,0,0,1-1.212.694l-.069.028a1.636,1.636,0,0,1-.833-.426,1.6,1.6,0,0,1-.454-.819h0Z" transform="translate(-15.67 -16.149)"/>
        <path id="Path_13196" data-name="Path 13196" d="M44.683,11.192a27.505,27.505,0,0,1-.509-4.646.534.534,0,0,0-1.064,0,29.372,29.372,0,0,0,.546,4.928c.13.666,1.157.384,1.023-.282h0Z" transform="translate(-25.195 -6.06)"/>
        <path id="Path_13197" data-name="Path 13197" d="M67.185,15.976q1.5-2.034,2.855-4.156c.37-.578-.551-1.111-.9-.537q-1.354,2.124-2.855,4.156C65.857,15.99,66.783,16.532,67.185,15.976Z" transform="translate(-37.585 -8.734)"/>
        <path id="Path_13198" data-name="Path 13198" d="M79.641,32.221a12.78,12.78,0,0,1-2.5.833l-2.679.856c-.648.208-.37,1.236.282,1.023l3.054-.981a11.922,11.922,0,0,0,2.365-.819.533.533,0,0,0-.532-.921h0Z" transform="translate(-41.841 -20.078)"/>
        <path id="Path_13199" data-name="Path 13199" d="M16.568,18.107c-.509-.454-1.268.3-.75.75A45.037,45.037,0,0,1,19.2,22.12c.454.5,1.217-.255.754-.75a42.538,42.538,0,0,0-3.387-3.263h0Z" transform="translate(-10.44 -12.457)"/>
        <path id="Path_13200" data-name="Path 13200" d="M11.641,37.923q-3.353-.4-6.733-.514c-.68-.028-.68,1.037,0,1.06,2.254.079,4.493.25,6.733.518.694.074.69-.995,0-1.064Z" transform="translate(-4.397 -22.902)"/>
      </g>
    </g>
  </g>
</svg>
