<svg xmlns="http://www.w3.org/2000/svg" xmlns:xlink="http://www.w3.org/1999/xlink" width="428" height="926" viewBox="0 0 428 926">
  <defs>
    <clipPath id="clip-path">
      <rect id="Rectangle_1770" data-name="Rectangle 1770" width="428" height="926" fill="#fff"/>
    </clipPath>
  </defs>
  <g id="bg-image" clip-path="url(#clip-path)">
    <g id="Group_15555" data-name="Group 15555" transform="translate(-278.577 -54.576)">
      <g id="BACKGROUND" transform="translate(-0.572 0.576)">widget
        <rect id="Rectangle_1620" data-name="Rectangle 1620" width="872" height="583" transform="translate(0.149 0)" fill="#eec5b9"/>
      </g>
      <g id="OBJECTS" transform="translate(-0.572 0.576)">
        <g id="Group_15554" data-name="Group 15554" transform="translate(0 0)">
          <g id="Group_15564" data-name="Group 15564" transform="translate(0 0)">
            <path id="Path_13255" data-name="Path 13255" d="M929.317,98.016C849.211,78.855,767.787,117.6,694.837,155.838s-153.2,78.354-233.924,61.98c-43.956-8.917-82.78-33.887-124.809-49.548-58.089-21.647-121.688-25.146-183.373-18.991S30.724,170.915-29.317,186.344c-.449.9-2.6,3.541-3.054,4.439v68.829c317.1,0,635.43,12.99,952.474,18.766Z" transform="translate(-6.501 15.122)" fill="#f9f9f9" opacity="0.1"/>
            <path id="Path_13256" data-name="Path 13256" d="M880.04,153.7l-51.425-16.032c-30.118-9.39-60.331-18.8-91.378-24.409-82.113-14.824-168.907-1.873-243.357,35.8C435.9,178.4,383.984,222.655,320.41,236.1c2.056,0-.968,4.3,1.088,4.3H858.274Z" transform="translate(52.084 17.499)" fill="#f9f9f9" opacity="0.1"/>
            <path id="Path_13257" data-name="Path 13257" d="M367.488,237.332c-58.074-14.373-109.251-47.936-164.034-71.978A529.232,529.232,0,0,0-83.158,126.431c-.321,1.96.357,4.264.036,6.224V245.231Z" transform="translate(-14.95 19.795)" fill="#f9f9f9" opacity="0.1"/>
            <g id="Group_15551" data-name="Group 15551" transform="translate(-145.802 163.282)">
              <path id="Path_13258" data-name="Path 13258" d="M-117.609,197.575,2.763,145.882a27.059,27.059,0,0,1,19.314-.2l119.131,47.289a26.924,26.924,0,0,0,19.78-.412l13.243-6.129a26.866,26.866,0,0,1,20.119-.274l59.4,24.882a27.109,27.109,0,0,0,19.1.163L285,206.42a27.136,27.136,0,0,1,18.974.113L314.833,211a27.061,27.061,0,0,0,19.374-.049l96.29-40.327a26.958,26.958,0,0,1,19.766.118l21.067,9.215c6.516,2.851,15.768,2.52,21.594-.773h0c5.855-3.309,15.161-3.625,21.676-.738l47.81,21.189a26.8,26.8,0,0,0,20.467-.119l25.395-11.741a26.951,26.951,0,0,1,19.561-.493l15.9,6.1a27.185,27.185,0,0,0,18.729-.134l119.859-48.529a27.335,27.335,0,0,1,15.492-1.1l101.872,22.5a27.2,27.2,0,0,0,15.779-1.215l53.687-22.752a26.961,26.961,0,0,1,19.78.059l38.881,16.841c4.04,1.75,6.41,4.464,6.41,7.34V370.631c0,5.109-7.329,9.249-16.369,9.249H-107.7c-9.039,0-16.368-4.141-16.368-9.249V204.939C-124.072,202.048-121.68,199.324-117.609,197.575Z" transform="translate(124.072 -140.298)" fill="#edae9b"/>
              <path id="Path_13259" data-name="Path 13259" d="M-26.17,225.879l73.7-32.66a62.616,62.616,0,0,1,41.759-3.188L179.5,214.5a62.627,62.627,0,0,0,29.016.9l7.386-1.521a62.615,62.615,0,0,1,28.467.75L347.68,241.634a62.606,62.606,0,0,0,34.519-.814l64.113-20.037a62.616,62.616,0,0,1,35.881-.442h0a62.62,62.62,0,0,0,38.358-1.273l8.509-3.054a62.615,62.615,0,0,1,29.127-3.173l172.095,22.088a62.618,62.618,0,0,0,25.084-1.875L887.53,195.507V419.657a62.617,62.617,0,0,1-62.618,62.618H36.448A62.617,62.617,0,0,1-26.17,419.657Z" transform="translate(140.33 -132.401)" fill="#e89aa3"/>
              <path id="Path_13260" data-name="Path 13260" d="M-26.17,370.133a44.939,44.939,0,0,1,38.557-44.484L175.705,266.32a42.925,42.925,0,0,1,26.222-.995l105.313,29.447c.809-.153,71.491-19.529,72.308-19.637l76.929-19.43a45.05,45.05,0,0,1,5.878-.386h19.979a44.945,44.945,0,0,1,12.6,1.8l111.439,32.549a44.953,44.953,0,0,0,24.56.182l74.223-20.492a44.892,44.892,0,0,0,9.444-3.8l66.786-36.175a44.937,44.937,0,0,1,21.4-5.424h5.538a44.915,44.915,0,0,0,15.357-2.706l10.388-3.777a44.937,44.937,0,0,1,37.446,3.1l24.006,13.549V370.133a44.939,44.939,0,0,1-44.939,44.939H18.769A44.94,44.94,0,0,1-26.17,370.133Z" transform="translate(140.33 -127.931)" fill="#af8cad"/>
              <path id="Path_13261" data-name="Path 13261" d="M-36.423,264.618,33.957,240.9a43.991,43.991,0,0,0,5.373-2.215l20.7-10.183a44.016,44.016,0,0,1,19.432-4.521H90.677a44.026,44.026,0,0,1,27.854,9.931l70.272,57.4,99.146,74.626a44.028,44.028,0,0,0,19.737,8.331l68.164,10.561a44.076,44.076,0,0,0,6.741.519h71.528a44.033,44.033,0,0,0,20.7-5.167l115.038-61.263q1.8-.96,3.689-1.75l33.068-13.848a44.04,44.04,0,0,1,21.458-3.192l36.7,3.731a44.014,44.014,0,0,1,15.012,4.31l58.851,29.006a44.026,44.026,0,0,0,31.683,2.806l21.592-6.237a44.027,44.027,0,0,1,28.114,1.238l10.261,3.973a44.027,44.027,0,0,0,24.38,2.143l52.514-10.315v98.682H7.6a44.028,44.028,0,0,1-44.027-44.029Z" transform="translate(138.628 -126.4)" fill="#9e81a8"/>
              <path id="Path_13262" data-name="Path 13262" d="M-59.242,410.546,75.5,368.3a21.4,21.4,0,0,0,4.177-1.818l47.9-27.237a21.412,21.412,0,0,1,19.1-1.033l57.685,25a21.42,21.42,0,0,0,4.412,1.368l232.893,45.446a21.388,21.388,0,0,0,5.419.356l89.313-5.512a21.407,21.407,0,0,0,3.874-.6l127.253-31.814q.8-.2,1.615-.338l61.547-10.432a21.4,21.4,0,0,0,10.709-5.163l80.523-72.157a21.416,21.416,0,0,1,9.754-4.979L895.751,265.5V488H-59.242Z" transform="translate(134.838 -119.506)" fill="#84617e"/>
              <path id="Path_13263" data-name="Path 13263" d="M795.812,383.675l-12.281,3.683a44.911,44.911,0,0,1-32.131-2.429l-17.247-8.169a44.91,44.91,0,0,0-34.54-1.633l-64.585,23.427a44.875,44.875,0,0,1-14.192,2.679l-92.09,2.3a44.907,44.907,0,0,0-10.589,1.54L377.164,443.159a44.894,44.894,0,0,1-11.712,1.555H295.543a44.909,44.909,0,0,1-18.556-4.013l-81.079-36.786a44.888,44.888,0,0,0-9.1-3.006L88.57,379.749a44.912,44.912,0,0,0-21.028.51L-13.7,401.923V523.516h921.29V417.191l-82.5-32.316A44.9,44.9,0,0,0,795.812,383.675Z" transform="translate(142.402 -101.747)" fill="#171717"/>
            </g>
            <circle id="Ellipse_819" data-name="Ellipse 819" cx="30.571" cy="30.571" r="30.571" transform="translate(621.209 104.684) rotate(-45)" fill="#f9f9f9"/>
            <g id="Group_15552" data-name="Group 15552" transform="translate(16.31 92.973)">
              <path id="Path_13264" data-name="Path 13264" d="M281.064,191.813s1.933,5.3,12.466,7.661l5.942,3.325,3.708-.484-2.944-2.835s6.379-3.063,9.767-6.659l6.145-2.2s-10.224,1.5-15.41,5.742l-3.644,1.871-9.82-2.42S282.848,193.564,281.064,191.813Z" transform="translate(29.24 -61.631)" fill="#281f32"/>
              <path id="Path_13265" data-name="Path 13265" d="M14.952,80.991S16.56,85.4,25.321,87.363l4.943,2.764,3.084-.4L30.9,87.368s5.306-2.548,8.123-5.539L44.133,80s-8.5,1.248-12.815,4.775l-3.032,1.558-8.167-2.013A28.257,28.257,0,0,1,14.952,80.991Z" transform="translate(-14.952 -80.002)" fill="#281f32"/>
              <path id="Path_13266" data-name="Path 13266" d="M191.715,175.337s2.46,8.271,18.326,12.853l8.766,5.626,5.707-.393-4.233-4.6s10.026-4.086,15.531-9.264l9.587-2.786s-15.751,1.346-24.062,7.34l-5.738,2.521-14.771-4.6S194.277,178.175,191.715,175.337Z" transform="translate(14.402 -64.17)" fill="#281f32"/>
              <path id="Path_13267" data-name="Path 13267" d="M228.309,142.742s1.518,5.068,11.249,7.858l5.38,3.439,3.5-.247-2.6-2.817s6.14-2.515,9.509-5.7l5.874-1.719s-9.654.843-14.741,4.527l-3.513,1.553-9.06-2.805A31.861,31.861,0,0,1,228.309,142.742Z" transform="translate(20.479 -69.583)" fill="#281f32"/>
              <path id="Path_13268" data-name="Path 13268" d="M142.857,190.391s.855,2.852,6.332,4.423l3.028,1.936,1.968-.14-1.463-1.585a21.094,21.094,0,0,0,5.352-3.207l3.307-.968s-5.434.474-8.3,2.549l-1.978.873-5.1-1.579A17.939,17.939,0,0,1,142.857,190.391Z" transform="translate(6.289 -61.67)" fill="#281f32"/>
              <path id="Path_13269" data-name="Path 13269" d="M343.917,172.611s.855,2.851,6.332,4.423l3.028,1.936,1.968-.14-1.463-1.585a21.07,21.07,0,0,0,5.353-3.208l3.306-.967s-5.434.475-8.3,2.548l-1.978.875-5.1-1.58A17.95,17.95,0,0,1,343.917,172.611Z" transform="translate(39.678 -64.623)" fill="#281f32"/>
              <path id="Path_13270" data-name="Path 13270" d="M202.068,153.288l-3.659.609-11.791.882,4.879,1.327-3.524,1.327-7.454-1.977-8.4-.678-6.234.678,5.958-1.21,8.165.257,2.414-.873,8.114.266Z" transform="translate(10.113 -67.832)" fill="#281f32"/>
              <path id="Path_13272" data-name="Path 13272" d="M315.024,120.086l-2.75.457-8.861.663,3.667,1-2.648,1-5.6-1.486-6.314-.509-4.685.509,4.477-.909,6.136.193,1.814-.656,6.1.2Z" transform="translate(30.364 -73.345)" fill="#281f32"/>
              <path id="Path_13273" data-name="Path 13273" d="M225.733,114.653l-1.947.324-6.274.47,2.6.706-1.875.706-3.967-1.052-4.471-.361-3.318.361,3.17-.644,4.345.137,1.284-.465,4.318.142Z" transform="translate(16.854 -74.248)" fill="#281f32"/>
              <path id="Path_13274" data-name="Path 13274" d="M313.739,167.168l-4.684.779-15.092,1.129,6.245,1.7-4.51,1.7-9.541-2.53-10.755-.867-7.98.867,7.626-1.548,10.452.329,3.089-1.118,10.386.341Z" transform="translate(26.975 -65.527)" fill="#281f32"/>
              <path id="Path_13275" data-name="Path 13275" d="M108.945,104.171l-4.684.779-15.092,1.129,6.245,1.7-4.51,1.7-9.541-2.53-10.755-.867-7.98.867,7.626-1.548,10.452.329,3.089-1.118,10.386.34Z" transform="translate(-7.035 -75.988)" fill="#281f32"/>
              <path id="Path_13276" data-name="Path 13276" d="M110.025,136.39,122.667,139l12.86,5.919,2,2.357,2.783-.313.387-2.742,8.59-7.495,11.465-1.668-12.484.155-9.082,5.155-4.5.328-10.995-3.12Z" transform="translate(0.836 -70.859)" fill="#281f32"/>
            </g>
          </g>
        </g>
      </g>
    </g>
  </g>
</svg>