<svg xmlns="http://www.w3.org/2000/svg" xmlns:xlink="http://www.w3.org/1999/xlink" width="48" height="48" viewBox="0 0 48 48">
  <defs>
    <clipPath id="clip-path">
      <rect id="Rectangle_983" data-name="Rectangle 983" width="48" height="48" fill="#fff" stroke="#707070" stroke-width="1"/>
    </clipPath>
  </defs>
  <g id="change_pw" data-name="change pw" clip-path="url(#clip-path)">
    <path id="Icon_ionic-ios-key" data-name="Icon ionic-ios-key" d="M8.71,10.991a5.057,5.057,0,0,1,1.675.184c2.266-1.93,8.252-7.025,8.708-7.5a.9.9,0,0,1,.672-.3,1.494,1.494,0,0,1,.954.43c.309.3,1.478,1.558,1.254,1.791-.672.69-.851.828-1.128,1.11-.416.425-1.267-.045-1.612.1a.66.66,0,0,0-.466.56A8.368,8.368,0,0,0,18.9,8.43a1.12,1.12,0,0,1-.412.851.942.942,0,0,1-.7.39c-.4.009-.936-.573-1.361-.139s.278,1.061.224,1.522a1.691,1.691,0,0,1-.967,1.079c-.273.058-.976-.524-1.375-.434a.934.934,0,0,0-.493.51c-.045.206.309,1.119.264,1.325a3.148,3.148,0,0,1-.466.779,5.043,5.043,0,0,1,.421,2.136A5.448,5.448,0,0,1,8.7,22a5.441,5.441,0,0,1-5.328-5.552A5.366,5.366,0,0,1,8.71,10.991ZM7.671,19.135A1.433,1.433,0,1,0,6.238,17.7,1.431,1.431,0,0,0,7.671,19.135Z" transform="translate(10.94 11.312)" fill="#a1a1ff"/>
  </g>
</svg>
