<svg xmlns="http://www.w3.org/2000/svg" xmlns:xlink="http://www.w3.org/1999/xlink" width="48" height="48" viewBox="0 0 48 48">
  <defs>
    <clipPath id="clip-path">
      <rect id="Rectangle_1488" data-name="Rectangle 1488" width="48" height="48" transform="translate(0 0.309)" fill="#fff" stroke="#707070" stroke-width="1"/>
    </clipPath>
  </defs>
  <g id="delete_account" transform="translate(0 -0.309)" clip-path="url(#clip-path)">
    <g id="Group_14553" data-name="Group 14553" transform="translate(-32.498 -653.842)">
      <g id="Group_14553-2" data-name="Group 14553" transform="translate(47.875 667)">
        <circle id="Ellipse_457" data-name="Ellipse 457" cx="4.299" cy="4.299" r="4.299" transform="translate(4.299)" fill="#a1a1ff"/>
        <path id="Path_12120" data-name="Path 12120" d="M2.59,0a8.653,8.653,0,1,1,0,17.305C.383,17.305,0,8.653,0,8.653S.019,0,2.59,0Z" transform="translate(0 20.676) rotate(-90)" fill="#a1a1ff"/>
      </g>
      <g id="Group_14554" data-name="Group 14554" transform="translate(57.94 678.301)">
        <circle id="Ellipse_515" data-name="Ellipse 515" cx="5.5" cy="5.5" r="5.5" transform="translate(0.181 0)" fill="#ff9e9e"/>
        <path id="Icon_metro-cross" data-name="Icon metro-cross" d="M8.4,6.651h0L6.613,4.868,8.4,3.084h0a.184.184,0,0,0,0-.26l-.843-.843a.184.184,0,0,0-.26,0h0L5.511,3.765,3.727,1.982h0a.184.184,0,0,0-.26,0l-.843.843a.184.184,0,0,0,0,.26h0L4.408,4.868,2.624,6.651h0a.184.184,0,0,0,0,.26l.843.843a.184.184,0,0,0,.26,0h0L5.511,5.97,7.294,7.754h0a.184.184,0,0,0,.26,0L8.4,6.911a.184.184,0,0,0,0-.26Z" transform="translate(0.14 0.783)" fill="#fff"/>
      </g>
    </g>
  </g>
</svg>
