<svg id="email-24dp" xmlns="http://www.w3.org/2000/svg" width="24" height="24" viewBox="0 0 24 24">
  <path id="mail" d="M47.7,80H34.243A2.246,2.246,0,0,0,32,82.243v9.615A2.246,2.246,0,0,0,34.243,94.1H47.7a2.246,2.246,0,0,0,2.243-2.243V82.243A2.246,2.246,0,0,0,47.7,80Zm-.568,3.711L41.367,88.2a.641.641,0,0,1-.787,0l-5.769-4.487A.641.641,0,1,1,35.6,82.7l5.375,4.181L46.349,82.7a.641.641,0,1,1,.787,1.012Z" transform="translate(-28.974 -75.051)"/>
  <g id="Group_14860" data-name="Group 14860" opacity="0">
    <g id="Rectangle_1592" data-name="Rectangle 1592" transform="translate(2 2)" fill="none" stroke="#fff" stroke-width="1">
      <rect width="20" height="20" stroke="none"/>
      <rect x="0.5" y="0.5" width="19" height="19" fill="none"/>
    </g>
    <g id="Rectangle_1593" data-name="Rectangle 1593" fill="none" stroke="#fff" stroke-width="1">
      <rect width="24" height="24" stroke="none"/>
      <rect x="0.5" y="0.5" width="23" height="23" fill="none"/>
    </g>
  </g>
</svg>
