<svg id="eye" xmlns="http://www.w3.org/2000/svg" width="24" height="24" viewBox="0 0 24 24">
  <g id="eye-2" data-name="eye" transform="translate(-12.924 -89.962)">
    <circle id="Ellipse_815" data-name="Ellipse 815" cx="2.385" cy="2.385" r="2.385" transform="translate(22.54 99.578)" fill="#fff"/>
    <path id="Path_13253" data-name="Path 13253" d="M33.676,101.314a12.631,12.631,0,0,0-3.7-3.746A9.362,9.362,0,0,0,24.912,96a8.928,8.928,0,0,0-4.631,1.346,13.575,13.575,0,0,0-4.087,3.953,1.19,1.19,0,0,0-.024,1.324,12.451,12.451,0,0,0,3.663,3.751,9.231,9.231,0,0,0,5.08,1.551,9.4,9.4,0,0,0,5.076-1.555,12.446,12.446,0,0,0,3.692-3.761A1.2,1.2,0,0,0,33.676,101.314Zm-8.752,4.226a3.578,3.578,0,1,1,3.578-3.578,3.578,3.578,0,0,1-3.578,3.578Z" transform="translate(0)" fill="#fff"/>
  </g>
  <g id="Group_14861" data-name="Group 14861" transform="translate(-365 -187)" opacity="0">
    <g id="Rectangle_1592" data-name="Rectangle 1592" transform="translate(367 189)" fill="none" stroke="#fff" stroke-width="1">
      <rect width="20" height="20" stroke="none"/>
      <rect x="0.5" y="0.5" width="19" height="19" fill="none"/>
    </g>
    <g id="Rectangle_1593" data-name="Rectangle 1593" transform="translate(365 187)" fill="none" stroke="#fff" stroke-width="1">
      <rect width="24" height="24" stroke="none"/>
      <rect x="0.5" y="0.5" width="23" height="23" fill="none"/>
    </g>
  </g>
</svg>
