<svg xmlns="http://www.w3.org/2000/svg" width="29.958" height="39.944" viewBox="0 0 29.958 39.944">
  <path id="Icon_awesome-file-pdf" data-name="Icon awesome-file-pdf" d="M14.191,19.98c-.39-1.248-.382-3.659-.156-3.659C14.69,16.321,14.628,19.2,14.191,19.98Zm-.133,3.682a36,36,0,0,1-2.216,4.892,28.727,28.727,0,0,1,4.907-1.709A10.106,10.106,0,0,1,14.058,23.662ZM6.717,33.4c0,.062,1.03-.421,2.723-3.136C8.917,30.754,7.17,32.174,6.717,33.4ZM19.348,12.482h10.61V38.071a1.868,1.868,0,0,1-1.872,1.872H1.872A1.868,1.868,0,0,1,0,38.071V1.872A1.868,1.868,0,0,1,1.872,0h15.6V10.61A1.878,1.878,0,0,0,19.348,12.482Zm-.624,13.4a7.83,7.83,0,0,1-3.331-4.2c.351-1.443.9-3.636.484-5.009a1.954,1.954,0,0,0-3.729-.531c-.39,1.428-.031,3.44.632,6.007A73.259,73.259,0,0,1,9.6,28.85c-.008,0-.008.008-.016.008-2.114,1.084-5.742,3.472-4.252,5.305a2.424,2.424,0,0,0,1.677.78c1.4,0,2.785-1.4,4.767-4.821a44.47,44.47,0,0,1,6.163-1.81,11.823,11.823,0,0,0,4.993,1.521,2.02,2.02,0,0,0,1.537-3.386c-1.084-1.061-4.236-.757-5.742-.562ZM29.412,8.192,21.766.546A1.871,1.871,0,0,0,20.44,0h-.468V9.986h9.986V9.51A1.866,1.866,0,0,0,29.412,8.192ZM23.631,28.109c.32-.211-.2-.928-3.339-.7C23.186,28.639,23.631,28.109,23.631,28.109Z" fill="#e3e3e3"/>
</svg>
