<svg xmlns="http://www.w3.org/2000/svg" width="49.573" height="47.467" viewBox="0 0 49.573 47.467">
  <g id="gift_image" transform="translate(-221.157 -170.021)">
    <path id="Path_12372" data-name="Path 12372" d="M749.694,634.083H717.581A1.485,1.485,0,0,1,716.1,632.6V602.755a1.485,1.485,0,0,1,1.484-1.484h32.113a1.485,1.485,0,0,1,1.484,1.483V632.6A1.485,1.485,0,0,1,749.694,634.083Z" transform="translate(-494.94 -417.643)" fill="#8585fe"/>
    <path id="Path_12373" data-name="Path 12373" d="M801.117,630.938H796.58a1.486,1.486,0,0,1-1.484-1.484V597.675a1.485,1.485,0,0,1,1.484-1.483h4.538a1.485,1.485,0,0,1,1.483,1.483v31.779A1.485,1.485,0,0,1,801.117,630.938Z" transform="translate(-560.151 -413.449)" fill="#3f3d56"/>
    <path id="Path_12374" data-name="Path 12374" d="M919.551,556.824c-.187,3.079-4.346,5.33-4.346,5.33s-3.854-2.74-3.667-5.819,4.346-5.33,4.346-5.33S919.739,553.745,919.551,556.824Z" transform="translate(-656.266 -376.149)" fill="#3f3d56"/>
    <path id="Path_12375" data-name="Path 12375" d="M933.287,601.447c-3.079-.178-5.344-4.33-5.344-4.33s2.728-3.863,5.807-3.685,5.344,4.33,5.344,4.33S936.367,601.625,933.287,601.447Z" transform="translate(-669.813 -411.167)" fill="#3f3d56"/>
    <path id="Path_12376" data-name="Path 12376" d="M691.372,500.613v11.393L680.04,497.049h8.632Z" transform="translate(-435.222 -313.332)" opacity="0.1"/>
    <path id="Path_12377" data-name="Path 12377" d="M853.029,560.063a1.481,1.481,0,0,1-1.184-.587l-23.609-31.161a1.483,1.483,0,0,1,.286-2.078L832,523.6a1.483,1.483,0,0,1,2.078.287l23.609,31.16a1.483,1.483,0,0,1-.286,2.078l-3.478,2.635A1.474,1.474,0,0,1,853.029,560.063Z" transform="translate(-587.259 -353.28)" fill="#8585fe"/>
    <rect id="Rectangle_1038" data-name="Rectangle 1038" width="7.505" height="7.505" transform="translate(250.339 187.103) rotate(-37.15)" fill="#3f3d56"/>
  </g>
</svg>
