<svg id="heart" xmlns="http://www.w3.org/2000/svg" width="24" height="24" viewBox="0 0 24 24">
  <g id="Group_14853" data-name="Group 14853" opacity="0">
    <g id="Rectangle_1592" data-name="Rectangle 1592" transform="translate(2 2)" fill="none" stroke="#fff" stroke-width="1">
      <rect width="20" height="20" stroke="none"/>
      <rect x="0.5" y="0.5" width="19" height="19" fill="none"/>
    </g>
    <g id="Rectangle_1593" data-name="Rectangle 1593" fill="none" stroke="#fff" stroke-width="1">
      <rect width="24" height="24" stroke="none"/>
      <rect x="0.5" y="0.5" width="23" height="23" fill="none"/>
    </g>
  </g>
  <g id="sending_love" data-name="sending love" transform="translate(4.04 4.04)">
    <g id="Group_14279" data-name="Group 14279" transform="translate(0 0)">
      <path id="Path_12171" data-name="Path 12171" d="M15.921,7.96a7.712,7.712,0,0,1-.039.78q-.038.39-.114.774t-.19.758c-.075.249-.163.495-.263.735s-.211.477-.334.707-.257.453-.4.67-.3.426-.464.627-.341.394-.525.579-.378.359-.579.525-.41.32-.627.466-.44.278-.671.4-.465.234-.706.334-.486.187-.736.264-.5.138-.758.189-.513.089-.773.115-.519.038-.78.038-.521-.012-.78-.038-.517-.064-.773-.115-.508-.114-.757-.189-.495-.164-.736-.264-.476-.211-.706-.334-.453-.257-.67-.4-.426-.3-.628-.466-.395-.34-.579-.525-.359-.377-.524-.579-.32-.411-.466-.627-.279-.44-.4-.67-.234-.465-.334-.707-.188-.486-.263-.735S.2,9.77.153,9.514.064,9,.039,8.74,0,8.221,0,7.96s.013-.52.039-.78S.1,6.664.153,6.407.268,5.9.343,5.65s.163-.495.263-.736.211-.476.334-.706a7.8,7.8,0,0,1,.4-.67q.218-.325.466-.628a7.782,7.782,0,0,1,.524-.578q.277-.277.579-.525c.2-.166.411-.32.628-.466a7.8,7.8,0,0,1,.67-.4q.345-.185.706-.335c.241-.1.486-.187.736-.263s.5-.138.757-.189.514-.09.773-.115S7.7,0,7.96,0s.521.013.78.039.517.064.773.115.509.114.758.189.495.164.736.263a7.923,7.923,0,0,1,2,1.2q.3.249.579.525t.525.578c.165.2.32.411.464.628s.279.44.4.67.234.466.334.706.188.486.263.736.139.5.19.758.089.514.114.773A7.741,7.741,0,0,1,15.921,7.96Zm0,0" fill="none" stroke="#fff" stroke-width="1"/>
    </g>
    <path id="Path_12173" data-name="Path 12173" d="M2.388,0A2.388,2.388,0,0,1,4.511,1.294,2.388,2.388,0,0,1,9.021,2.389c0,3.171-3.613,4.96-4.463,4.96C3.561,7.349,0,5.588,0,2.389A2.388,2.388,0,0,1,2.388,0Zm0,0" transform="translate(3.538 4.422)" fill="none" stroke="#fff" stroke-width="1" fill-rule="evenodd"/>
  </g>
</svg>
