<svg xmlns="http://www.w3.org/2000/svg" width="370.918" height="237.109" viewBox="0 0 370.918 237.109">
  <g id="illustration" transform="translate(75.302)" opacity="0.68">
    <path id="Path_11809" data-name="Path 11809" d="M370.918,742.8s-163.865,8.829-256.594,5.16S0,728.121,0,728.121H164.54Z" transform="translate(-75.302 -511.742)" fill="#e9e9fd"/>
    <circle id="Ellipse_423" data-name="Ellipse 423" cx="30.211" cy="30.211" r="30.211" transform="translate(173.282 0)" fill="#e2e2fd"/>
    <path id="Path_11810" data-name="Path 11810" d="M335.954,777.46s.442-9.26,9.5-8.183" transform="translate(-296.496 -559.502)" fill="#3f3d56"/>
    <circle id="Ellipse_424" data-name="Ellipse 424" cx="4.534" cy="4.534" r="4.534" transform="translate(32.364 200.078)" fill="#6c63ff"/>
    <rect id="Rectangle_931" data-name="Rectangle 931" width="1.28" height="8.959" transform="translate(36.161 212.247)" fill="#3f3d56"/>
    <path id="Path_11811" data-name="Path 11811" d="M838.4,782.782s.442-9.26,9.5-8.183" transform="translate(-649.629 -563.243)" fill="#3f3d56"/>
    <circle id="Ellipse_425" data-name="Ellipse 425" cx="4.534" cy="4.534" r="4.534" transform="translate(181.679 201.66)" fill="#6c63ff"/>
    <rect id="Rectangle_932" data-name="Rectangle 932" width="1.28" height="8.959" transform="translate(185.475 213.829)" fill="#3f3d56"/>
    <path id="Path_11812" data-name="Path 11812" d="M911.851,788.105s.442-9.26,9.5-8.183" transform="translate(-701.251 -566.984)" fill="#3f3d56"/>
    <circle id="Ellipse_426" data-name="Ellipse 426" cx="4.534" cy="4.534" r="4.534" transform="translate(203.506 203.242)" fill="#6c63ff"/>
    <rect id="Rectangle_933" data-name="Rectangle 933" width="1.28" height="8.959" transform="translate(207.303 215.411)" fill="#3f3d56"/>
    <path id="Path_11813" data-name="Path 11813" d="M456.243,762.557s.442-9.26,9.5-8.183" transform="translate(-381.038 -549.027)" fill="#3f3d56"/>
    <circle id="Ellipse_427" data-name="Ellipse 427" cx="4.534" cy="4.534" r="4.534" transform="translate(68.111 195.65)" fill="#6c63ff"/>
    <rect id="Rectangle_934" data-name="Rectangle 934" width="1.28" height="8.959" transform="translate(71.907 207.819)" fill="#3f3d56"/>
    <path id="Path_11814" data-name="Path 11814" d="M229.5,767.879s.442-9.26,9.5-8.183" transform="translate(-221.68 -552.768)" fill="#3f3d56"/>
    <circle id="Ellipse_428" data-name="Ellipse 428" cx="4.534" cy="4.534" r="4.534" transform="translate(0.73 197.232)" fill="#6c63ff"/>
    <rect id="Rectangle_935" data-name="Rectangle 935" width="1.28" height="8.959" transform="translate(4.526 209.401)" fill="#3f3d56"/>
    <circle id="Ellipse_429" data-name="Ellipse 429" cx="49.399" cy="49.399" r="49.399" transform="translate(68.049 100.223)" fill="#a1a1ff"/>
    <path id="Path_11815" data-name="Path 11815" d="M483.1,521.194a13.072,13.072,0,0,1,20.065,0,14.529,14.529,0,1,0-20.065,0Z" transform="translate(-396.756 -367.606)" fill="#fff"/>
    <path id="Path_11816" data-name="Path 11816" d="M615.109,521.194a13.072,13.072,0,0,1,20.065,0,14.529,14.529,0,1,0-20.065,0Z" transform="translate(-489.533 -367.607)" fill="#fff"/>
    <circle id="Ellipse_430" data-name="Ellipse 430" cx="4.998" cy="4.998" r="4.998" transform="translate(86.426 133.133)" fill="#3f3d56"/>
    <circle id="Ellipse_431" data-name="Ellipse 431" cx="4.998" cy="4.998" r="4.998" transform="translate(125.653 133.133)" fill="#3f3d56"/>
    <circle id="Ellipse_432" data-name="Ellipse 432" cx="5.812" cy="5.812" r="5.812" transform="translate(76.04 156.16)" fill="#ff6584"/>
    <circle id="Ellipse_433" data-name="Ellipse 433" cx="5.812" cy="5.812" r="5.812" transform="translate(142.873 156.16)" fill="#ff6584"/>
    <path id="Path_11817" data-name="Path 11817" d="M424.635,505.926l-4.359,18.888,7.264-7.264Z" transform="translate(-309.367 -355.578)" fill="#ff6584"/>
    <path id="Path_11818" data-name="Path 11818" d="M472.534,681.6l-4.949-4.153.115,4.153h-1.537l-.123-4.392L459.36,681.6h-2.8l9.429-6.2-.365-13.013-.273-9.828,1.533-.042.277,9.87.365,13,7.4,6.209Z" transform="translate(-334.87 -458.61)" fill="#3f3d56"/>
    <path id="Path_11819" data-name="Path 11819" d="M394.313,681.6l-4.949-4.153.115,4.153h-1.533l-.123-4.392-6.681,4.392h-2.8l9.425-6.2-.365-13.013-.273-9.828,1.537-.042.277,9.87.361,13,7.4,6.209Z" transform="translate(-279.896 -458.61)" fill="#3f3d56"/>
    <path id="Path_11820" data-name="Path 11820" d="M563.037,374.871c-1.355,0-2.551,1.053-3.351,2.67-.7-2.432-2.185-4.123-3.914-4.123a2.634,2.634,0,0,0-.349.059c-.664-2.6-2.209-4.417-4.01-4.417-2.407,0-4.359,3.252-4.359,7.265s1.951,7.264,4.359,7.264a2.622,2.622,0,0,0,.349-.059c.665,2.6,2.209,4.417,4.01,4.417,1.356,0,2.551-1.053,3.351-2.67.7,2.432,2.185,4.123,3.914,4.123,2.407,0,4.359-3.252,4.359-7.265S565.445,374.871,563.037,374.871Z" transform="translate(-444.863 -278.28)" fill="#3f3d56"/>
    <path id="Path_11821" data-name="Path 11821" d="M0,0H0A14.529,14.529,0,0,1,14.529,14.529v7.265A14.529,14.529,0,0,1,0,36.323H0Z" transform="translate(71.08 168.342) rotate(180)" fill="#524ad5"/>
    <path id="Path_11822" data-name="Path 11822" d="M598.3,444.248h0a14.529,14.529,0,0,1,14.529,14.529v7.264A14.529,14.529,0,0,1,598.3,480.571h0V444.248Z" transform="translate(-434.488 -312.229)" fill="#524ad5"/>
    <path id="Path_11823" data-name="Path 11823" d="M518.346,429.719H516.04a53.02,53.02,0,0,0-106.04,0h-2.3a55.325,55.325,0,1,1,110.651,0Z" transform="translate(-346.917 -282.029)" fill="#524ad5"/>
    <path id="Path_11824" data-name="Path 11824" d="M131.69,368Z" transform="translate(-106.541 -258.638)" fill="#3f3d56"/>
    <path id="Path_11825" data-name="Path 11825" d="M304.919,403.783h0l-1.083-.451-4.569-1.932-1.638-.692-.126.317h0l-2.2,5.555L301.5,409.2l.033.029-.417.984a1.742,1.742,0,0,0-.146.284,1.366,1.366,0,0,0,.782,1.679c.522.207,1.182-.224,1.474-.962a1.553,1.553,0,0,0-.5-1.876h0l-1.083-.451-3.7-1.44,2.117-5.345-.314-.124-2.118,5.347-.458-.178,2.126-5.368.056.024,4.355,1.843.032.029-.417.984a1.741,1.741,0,0,0-.146.284,1.366,1.366,0,0,0,.782,1.679c.522.207,1.182-.224,1.474-.962A1.553,1.553,0,0,0,304.919,403.783Z" transform="translate(-267.926 -300.523)" fill="#3f3d56"/>
    <path id="Path_11826" data-name="Path 11826" d="M373.587,438.456c-2.248-1.285-1.8-4.105-1.8-4.105-.057-1.832-1.57-1.573-1.57-1.573l-.551.126a1.672,1.672,0,0,0-.819-.152l-.838.141a1.99,1.99,0,0,1,1.751,2.045l.267,1.866-5-2.017.574-1.354a2.417,2.417,0,0,0,.2-.394,1.9,1.9,0,0,0-1.086-2.332c-.725-.287-1.642.311-2.048,1.336a2.157,2.157,0,0,0,.7,2.606h0l1.5.626.011-.036Zm-2.539-3.28.16,1.787a4.12,4.12,0,0,1-.751-2.736,1.731,1.731,0,0,0-.335-.958,2.03,2.03,0,0,1,.925,1.908Z" transform="translate(-315.162 -321.557)" fill="#3f3d56"/>
    <path id="Path_11827" data-name="Path 11827" d="M247.074,353.406h0l-1.5-.626-6.287-2.444,1.587-1.412a2,2,0,0,1,2.739-.449l-.492-.732s-.926-1.225-2.221.071c0,0-1.6,2.363-4.121,1.761l8.6,3.64.045.041-.58,1.366a2.416,2.416,0,0,0-.2.394,1.9,1.9,0,0,0,1.086,2.332c.725.287,1.642-.311,2.048-1.336A2.157,2.157,0,0,0,247.074,353.406Z" transform="translate(-226.79 -262.929)" fill="#3f3d56"/>
    <path id="Path_11828" data-name="Path 11828" d="M328.433,313.13l-.58,1.367a2.414,2.414,0,0,0-.2.394,1.9,1.9,0,0,0,1.086,2.332c.725.287,1.642-.311,2.048-1.336a2.157,2.157,0,0,0-.7-2.606h0l-1.5-.626-5.146-2,2.94-7.423-.436-.173L323,310.482l-.636-.247,2.953-7.455.078.033,6.048,2.56.045.041-.58,1.366a2.418,2.418,0,0,0-.2.394,1.9,1.9,0,0,0,1.086,2.332c.725.287,1.642-.311,2.048-1.336a2.157,2.157,0,0,0-.7-2.606h0l-1.5-.626-6.147-2.6h0l-.2-.084-2.275-.962-3.231,8.157,8.6,3.64ZM322.843,301.733Z" transform="translate(-285.134 -230.651)" fill="#3f3d56"/>
    <path id="Path_11829" data-name="Path 11829" d="M215.235,175.364v0l-2.589-1.078-10.822-4.207,2.731-2.43a3.45,3.45,0,0,1,4.715-.772l-.848-1.26s-1.593-2.11-3.824.122c0,0-2.76,4.069-7.095,3.031l14.8,6.266.078.07-1,2.352a4.165,4.165,0,0,0-.348.679,3.265,3.265,0,0,0,1.869,4.014c1.248.494,2.826-.536,3.525-2.3C217.124,178.11,216.451,175.9,215.235,175.364Z" transform="translate(-199.19 -134.66)" fill="#3f3d56"/>
    <path id="Path_11830" data-name="Path 11830" d="M221.28,275.248c-5.374-3.073-4.3-9.816-4.3-9.816-.135-4.381-3.754-3.76-3.754-3.76l-1.317.3a4,4,0,0,0-1.959-.362l-2,.337c4.563,1.072,4.188,4.889,4.188,4.889l.639,4.463-11.955-4.823,1.373-3.237a5.78,5.78,0,0,0,.483-.943c.971-2.451-.863-4.889-2.6-5.575s-3.925.744-4.9,3.195c-.957,2.417-.022,5.489,1.667,6.231v0l3.6,1.5.027-.085Zm-6.071-7.841.385,4.286a9.821,9.821,0,0,1-1.8-6.556,4.138,4.138,0,0,0-.8-2.292,4.853,4.853,0,0,1,2.212,4.562Z" transform="translate(-197.289 -199.205)" fill="#3f3d56"/>
  </g>
</svg>
