<svg id="image" xmlns="http://www.w3.org/2000/svg" width="129.093" height="66.139" viewBox="0 0 129.093 66.139">
  <path id="Path_12345" data-name="Path 12345" d="M270.4,446.763a1.061,1.061,0,0,1-1.064-.2l-1.684-1.469a1.061,1.061,0,0,1-.1-1.5l12.244-14.039a1.061,1.061,0,0,1,1.5-.1l1.684,1.469a1.061,1.061,0,0,1,.1,1.5l-12.244,14.039A1.054,1.054,0,0,1,270.4,446.763Z" transform="translate(-255.061 -399.382)" fill="#b1b1ff"/>
  <path id="Path_12346" data-name="Path 12346" d="M383.068,374.789a1.064,1.064,0,0,1-.325-.051,1.053,1.053,0,0,1-.62-.523l-1.024-1.987a1.061,1.061,0,0,1,.456-1.428l16.557-8.536a1.061,1.061,0,0,1,1.428.456l1.024,1.986a1.061,1.061,0,0,1-.456,1.428l-16.557,8.536a1.053,1.053,0,0,1-.484.118Z" transform="translate(-350.901 -342.856)" fill="#b1b1ff"/>
  <path id="Path_12347" data-name="Path 12347" d="M381.281,397a1.063,1.063,0,0,1-.95-.585l-1-2a1.058,1.058,0,0,1-.082-.728c.007-.027.014-.054.023-.081h0c.02-.061.042-.156.068-.266.081-.351.182-.789.388-.892l7.275-4.41a1.06,1.06,0,0,1,1.425.463l0,.006,1.835,3.783a1.061,1.061,0,0,1-.472,1.422l-8.044,3.176A1.038,1.038,0,0,1,381.281,397Z" transform="translate(-349.412 -364.584)" fill="#2f2e41"/>
  <circle id="Ellipse_494" data-name="Ellipse 494" cx="8.105" cy="8.105" r="8.105" transform="translate(20.745 6.401)" fill="#b1b1ff"/>
  <path id="Path_12348" data-name="Path 12348" d="M345.386,546.4h-2.235a1.061,1.061,0,0,1-1.06-1.06V526.407a1.061,1.061,0,0,1,1.06-1.06h2.235a1.061,1.061,0,0,1,1.06,1.06v18.931A1.061,1.061,0,0,1,345.386,546.4Z" transform="translate(-318.116 -480.429)" fill="#b1b1ff"/>
  <path id="Path_12349" data-name="Path 12349" d="M360.541,503.595a1.06,1.06,0,0,1-.864-.443L348.843,488a1.061,1.061,0,0,1,.246-1.479l1.818-1.3a1.061,1.061,0,0,1,1.479.246l10.835,15.153a1.061,1.061,0,0,1-.246,1.479l-1.818,1.3A1.054,1.054,0,0,1,360.541,503.595Z" transform="translate(-323.642 -446.437)" fill="#b1b1ff"/>
  <path id="Path_12350" data-name="Path 12350" d="M388.208,588.338a1.458,1.458,0,0,1-.64-.16l-2-1c-.523-.26-.811-.748-.643-1.087l5.157-10.358c.169-.339.732-.4,1.255-.143l2,1a1.412,1.412,0,0,1,.574.5.6.6,0,0,1,.069.589l-5.157,10.358A.649.649,0,0,1,388.208,588.338Z" transform="translate(-354.183 -522.651)" fill="#b1b1ff"/>
  <path id="Path_12351" data-name="Path 12351" d="M320.215,427.1a1.063,1.063,0,0,1-1.11-.24l-3.032-2.909a1.06,1.06,0,0,1-.012-1.5h0l6.445-5.572c.157-.16.6-.122.964-.091.113.01.21.018.274.018.028,0,.056,0,.084,0h0a1.058,1.058,0,0,1,.668.3l1.591,1.569a1.061,1.061,0,0,1,.011,1.5l-5.49,6.665A1.069,1.069,0,0,1,320.215,427.1Z" transform="translate(-295.917 -388.894)" fill="#2f2e41"/>
  <path id="Path_12352" data-name="Path 12352" d="M366.219,323.13l-.008-.3a2.5,2.5,0,0,0,1.433-.324.931.931,0,0,0,.361-.686.532.532,0,0,0-.175-.438.917.917,0,0,0-.937-.008l-.251.115.481-3.512.3.041L367.014,321a1.069,1.069,0,0,1,1.011.146.828.828,0,0,1,.282.68,1.231,1.231,0,0,1-.485.92A2.788,2.788,0,0,1,366.219,323.13Z" transform="translate(-338.448 -305.621)" fill="#2f2e41"/>
  <rect id="Rectangle_1036" data-name="Rectangle 1036" width="1.631" height="0.303" transform="translate(30.458 12.652)" fill="#2f2e41"/>
  <rect id="Rectangle_1037" data-name="Rectangle 1037" width="1.631" height="0.303" transform="translate(25.31 12.652)" fill="#2f2e41"/>
  <path id="Path_12353" data-name="Path 12353" d="M287.662,418.482a1.061,1.061,0,0,1-.917-1.594l12.605-21.833a1.054,1.054,0,0,1,.915-.531h.012a1.054,1.054,0,0,1,.914.532l8.345,14.454a5.339,5.339,0,0,1-4.323,8c-7.526.424-17.445.967-17.544.972h0Z" transform="translate(-271.341 -370.149)" fill="#2f2e41"/>
  <path id="Path_12354" data-name="Path 12354" d="M218.882,245.609a8.455,8.455,0,0,0-8.115-6.3,8.6,8.6,0,0,0-5.082,1.843,8.214,8.214,0,0,0-1.864,2.039,10.38,10.38,0,0,0-1.192,2.869c-.557,2.021-.82,4.309-2.234,5.959a6.211,6.211,0,0,1-4.7,2.114,5.8,5.8,0,0,1-4.588-2.369,5.58,5.58,0,0,1-.974-5.095,2.546,2.546,0,0,1,1.879-1.775,2.19,2.19,0,0,1,2.168,1.038,2.156,2.156,0,0,1-.239,2.355,2.122,2.122,0,0,1-3.248-.09c-.182-.229-.5.092-.324.319a2.626,2.626,0,0,0,2.4.916,2.452,2.452,0,0,0,1.954-1.632,2.489,2.489,0,0,0-.454-2.516,2.664,2.664,0,0,0-2.474-.811,2.967,2.967,0,0,0-2.015,1.864,5.2,5.2,0,0,0-.271,2.854,6.688,6.688,0,0,0,3.061,4.51,6.3,6.3,0,0,0,5.4.491,6.623,6.623,0,0,0,2.373-1.461,7.1,7.1,0,0,0,1.634-2.608c.8-2.092.916-4.433,2.047-6.4a8.054,8.054,0,0,1,4.381-3.543,7.532,7.532,0,0,1,5.59.268,8.224,8.224,0,0,1,3.982,3.953,7.358,7.358,0,0,1,.463,1.322.227.227,0,0,0,.439-.118Z" transform="translate(-189.42 -239.308)" fill="#2f2e41"/>
  <path id="Path_12355" data-name="Path 12355" d="M361.8,396.368H358.47a.985.985,0,0,1-.984-.984v-.3a.985.985,0,0,1,.984-.984H361.8a.985.985,0,0,1,.984.984v.3a.985.985,0,0,1-.984.984Z" transform="translate(-331.094 -369.79)" fill="#2f2e41"/>
  <path id="Path_12356" data-name="Path 12356" d="M475.144,333.8l0,0a1.568,1.568,0,0,0-1.448,2.778l0,0,2.785,1.452,1.452-2.785a1.57,1.57,0,1,0-2.785-1.452Z" transform="translate(-428.399 -318.253)" fill="#ff6363"/>
  <path id="Path_12357" data-name="Path 12357" d="M598.126,458.24v.005a2.1,2.1,0,0,0-1.089,4.061v.005l4.072,1.092,1.092-4.072a2.108,2.108,0,1,0-4.072-1.092Z" transform="translate(-531.794 -422.544)" fill="#ffc6c6"/>
  <path id="Path_1" data-name="Path 1" d="M600.038,530.023l-1.324-2.34c-.175.056.333,1.366.147,1.406s-.387.075-.583.1-.4.043-.593.051-.391.008-.578,0a4.561,4.561,0,0,1-.518-.055,2.747,2.747,0,0,1-.421-.1,1.33,1.33,0,0,1-.307-.143.531.531,0,0,1-.177-.18l-2.417-4.405a.313.313,0,0,1,.084-.376,1.142,1.142,0,0,1,.237-.191,2.511,2.511,0,0,1,.356-.182,4.277,4.277,0,0,1,.451-.159c.166-.049.337-.091.511-.125s.364-.065.547-.087.376-.037.561-.044l-.508-.864a1.344,1.344,0,0,0-.692-.493,5.239,5.239,0,0,0-1.255-.283,11.04,11.04,0,0,0-1.641-.056,14.644,14.644,0,0,0-1.858.187l-58.523,9.665a14.63,14.63,0,0,0-1.819.42,11.02,11.02,0,0,0-1.535.581,5.229,5.229,0,0,0-1.1.671,1.345,1.345,0,0,0-.5.689l-3.071,8.43a.7.7,0,0,0,.249.693,2.262,2.262,0,0,0,.986.445,27.109,27.109,0,0,0,2.98-.046,14.824,14.824,0,0,0,2.2,0h0l65.9-10.6a12.707,12.707,0,0,0,1.957-.476,6.958,6.958,0,0,0,1.443-.652,2.258,2.258,0,0,0,.79-.738A.7.7,0,0,0,600.038,530.023Z" transform="translate(-471.043 -477.175)" fill="#a1a1ff"/>
  <path id="Path_1-2" data-name="Path 1" d="M600.782,522.023l-.635-1.079c-.175.056-.356.105-.542.145s-.387.075-.583.1-.4.043-.593.051-.391.008-.578,0a4.55,4.55,0,0,1-.518-.055,2.753,2.753,0,0,1-.421-.1,1.333,1.333,0,0,1-.307-.143.531.531,0,0,1-.177-.18l-2.417-4.405a.313.313,0,0,1,.084-.376,1.142,1.142,0,0,1,.237-.191,2.511,2.511,0,0,1,.356-.182,4.277,4.277,0,0,1,.451-.159c.166-.049.337-.091.512-.125s.364-.065.547-.087.376-.037.561-.044l-.508-.864a1.345,1.345,0,0,0-.692-.493,5.241,5.241,0,0,0-1.255-.283,11.04,11.04,0,0,0-1.641-.056,14.632,14.632,0,0,0-1.858.187l-58.522,9.665a14.631,14.631,0,0,0-1.819.42,11,11,0,0,0-1.535.581,5.228,5.228,0,0,0-1.1.671,1.345,1.345,0,0,0-.5.689l-1.815,8.744a.7.7,0,0,0,.249.693,2.261,2.261,0,0,0,.986.445,6.961,6.961,0,0,0,1.576.153,12.7,12.7,0,0,0,2.007-.179h0l66.241-10.94a12.7,12.7,0,0,0,1.957-.476,6.957,6.957,0,0,0,1.443-.652,2.258,2.258,0,0,0,.79-.738A.7.7,0,0,0,600.782,522.023Z" transform="translate(-472.729 -470.431)" fill="#fff"/>
  <path id="Path_2" data-name="Path 2" d="M523.767,534.034l1.838-8.748a1.429,1.429,0,0,1,.527-.727,5.545,5.545,0,0,1,1.158-.707,11.639,11.639,0,0,1,1.617-.612,15.448,15.448,0,0,1,1.916-.442l58.469-9.656a15.449,15.449,0,0,1,1.956-.2,11.628,11.628,0,0,1,1.728.06,5.548,5.548,0,0,1,1.324.3,1.43,1.43,0,0,1,.733.519l.581.982-.383.014c-.164.006-.33.019-.5.039s-.325.045-.486.077-.306.068-.453.111a3.774,3.774,0,0,0-.4.141,2.188,2.188,0,0,0-.315.161,1.014,1.014,0,0,0-.21.169.278.278,0,0,0-.073.333l2.43,4.4a.474.474,0,0,0,.158.159,1.187,1.187,0,0,0,.272.128,2.446,2.446,0,0,0,.373.09,4.056,4.056,0,0,0,.459.046c.166.008.337.009.511,0s.349-.023.525-.046.345-.051.515-.088.325-.079.48-.128l.349-.113.719,1.213a.738.738,0,0,1-.013.776,2.385,2.385,0,0,1-.833.779,7.328,7.328,0,0,1-1.521.688,13.4,13.4,0,0,1-2.064.5l-66.31,10.951a13.394,13.394,0,0,1-2.116.188,7.327,7.327,0,0,1-1.662-.163,2.381,2.381,0,0,1-1.039-.469A.738.738,0,0,1,523.767,534.034ZM594.531,513.9a1.272,1.272,0,0,0-.654-.466,4.949,4.949,0,0,0-1.187-.268,10.4,10.4,0,0,0-1.551-.054,13.832,13.832,0,0,0-1.757.177L530.8,522.967a13.836,13.836,0,0,0-1.721.4,10.426,10.426,0,0,0-1.452.55,4.949,4.949,0,0,0-1.036.635,1.274,1.274,0,0,0-.47.652l-1.79,8.74a.663.663,0,0,0,.238.654,2.149,2.149,0,0,0,.933.419,6.6,6.6,0,0,0,1.49.145,12.011,12.011,0,0,0,1.894-.168l66.172-10.928a12.017,12.017,0,0,0,1.848-.45,6.583,6.583,0,0,0,1.364-.616,2.147,2.147,0,0,0,.749-.7.663.663,0,0,0,.015-.7l-.559-.955c-.193.05-.391.091-.591.125s-.408.061-.611.079-.408.029-.607.03-.392,0-.578-.02a4.444,4.444,0,0,1-.512-.07,2.715,2.715,0,0,1-.413-.114,1.341,1.341,0,0,1-.3-.153.571.571,0,0,1-.176-.186l-2.4-4.407a.333.333,0,0,1,.067-.386,1.074,1.074,0,0,1,.221-.2,2.305,2.305,0,0,1,.337-.191,4.062,4.062,0,0,1,.434-.173c.162-.054.329-.1.5-.144s.364-.08.55-.11.386-.055.578-.072Z" transform="translate(-471.25 -469.968)" fill="#e4e4e4"/>
  <path id="Rectangle_1" data-name="Rectangle 1" d="M767.84,534.568l3.219,8.57-20.633,3.408-1.351-8.879Z" transform="translate(-661.191 -488.203)" fill="#fff"/>
  <path id="Path_7" data-name="Path 7" d="M748.213,545.9l-1.352-9.118,19.393-3.2,3.336,8.791Zm-.669-9.014,1.345,8.64,19.892-3.285-3.1-8.35Z" transform="translate(-659.324 -487.373)" fill="#e4e4e4"/>
  <path id="Path_8" data-name="Path 8" d="M778.834,544.154l-3.091-8.337-16.9,11.638Z" transform="translate(-669.427 -489.256)" fill="#ffe0e0"/>
  <path id="Path_9" data-name="Path 9" d="M645.241,583.963h-.006a1.955,1.955,0,0,0,.556-.45.5.5,0,0,0,.125-.412.542.542,0,0,0-.294-.332,2.14,2.14,0,0,0-.7-.211,5.492,5.492,0,0,0-1-.047,8.546,8.546,0,0,0-1.11.116,8.948,8.948,0,0,0-1.1.258,6.315,6.315,0,0,0-.971.378l0,0-4.209,2.247,4.519.749a5.442,5.442,0,0,0,1.063.056,8.624,8.624,0,0,0,1.191-.13,8.791,8.791,0,0,0,1.171-.29,5.8,5.8,0,0,0,1-.423,2.261,2.261,0,0,0,.631-.479.562.562,0,0,0,.163-.443.535.535,0,0,0-.29-.359A2.123,2.123,0,0,0,645.241,583.963Z" transform="translate(-566.313 -528.611)" fill="#ffc6c6"/>
  <path id="Path_12358" data-name="Path 12358" d="M653.582,547.942h0a1.568,1.568,0,0,0-3.133,0h0v3.141h3.141a1.57,1.57,0,0,0,0-3.141Z" transform="translate(-578.046 -498.219)" fill="#ffc6c6"/>
  <path id="Path_12359" data-name="Path 12359" d="M557.515,390.019v0a1.568,1.568,0,0,0,.991,2.972v0l2.979-.994-.994-2.979a1.57,1.57,0,1,0-2.979.994Z" transform="translate(-498.87 -364.61)" fill="#ffc6c6"/>
</svg>
