<svg xmlns="http://www.w3.org/2000/svg" width="168.744" height="110.89" viewBox="0 0 168.744 110.89">
  <g id="match" transform="translate(-33.142 -40.35)">
    <path id="Path_12478" data-name="Path 12478" d="M69.4,52.9c-17.137,4.637-30.7,15.5-32.842,35.5-1.8,16.853,1.588,45.094,30.339,50.722,27.811,5.451,128.143,16.3,134.741-19.134,3.752-20.155,4.172-54.348-27.634-65.229C152.439,47.346,106.171,42.957,69.4,52.9Z" transform="translate(-1.49 -3.346)" fill="#c0beff" opacity="0.43"/>
    <ellipse id="Ellipse_528" data-name="Ellipse 528" cx="50.08" cy="5.006" rx="50.08" ry="5.006" transform="translate(99.984 141.228)" fill="#d5d4ff"/>
    <ellipse id="Ellipse_529" data-name="Ellipse 529" cx="22.395" cy="5.006" rx="22.395" ry="5.006" transform="translate(43.977 141.228)" fill="#d5d4ff"/>
    <path id="Path_12479" data-name="Path 12479" d="M107.791,109.52s7.736,1.972,7.792,8.379-3.428,17.622,1.547,18.537,7.979-12.93,7.979-12.93l3.54,1.431s-3.777,23.649-16.818,19.751S107.791,109.52,107.791,109.52Z" transform="translate(-35.406 -34.194)" fill="#4e499e"/>
    <path id="Path_12480" data-name="Path 12480" d="M107.791,109.52s7.736,1.972,7.792,8.379-3.428,17.622,1.547,18.537,7.979-12.93,7.979-12.93l3.54,1.431s-3.777,23.649-16.818,19.751S107.791,109.52,107.791,109.52Z" transform="translate(-35.406 -34.194)" fill="#fff" opacity="0.44"/>
    <path id="Path_12481" data-name="Path 12481" d="M146.58,133.318s.2-3.423,1.578-4.4,1.143,1.517,1.143,1.517,1.375-1.6,2.528-.86-2.528,4.864-2.528,4.864Z" transform="translate(-56.077 -43.672)" fill="#f4a28c"/>
    <path id="Path_12482" data-name="Path 12482" d="M93.18,79.539a16.959,16.959,0,0,1-.41,4.505,1.365,1.365,0,0,1-1.724.92,3.034,3.034,0,0,1-2.27-2.372l-.713-2.412a2.442,2.442,0,0,1,1.2-2.554A2.606,2.606,0,0,1,93.18,79.539Z" transform="translate(-27.131 -18.24)" fill="#f4a28c"/>
    <path id="Path_12483" data-name="Path 12483" d="M87.511,85.49,86.5,94.364l4.93.207-1.244-6.543Z" transform="translate(-26.377 -22.315)" fill="#f4a28c"/>
    <path id="Path_12484" data-name="Path 12484" d="M92.147,78.129a10.927,10.927,0,0,1-2.528-.3,2.27,2.27,0,0,1-.1,2.493,1.785,1.785,0,0,1-1.188.774.91.91,0,0,1-1.011-.966l.142-2.66a2.791,2.791,0,0,1,1.517-2.417,11.039,11.039,0,0,1,1.193-.506c1.011-.364,2.473.369,3.4-.273a.657.657,0,0,1,1.011.47c.111,1.072-.147,2.741-1.613,3.261A2.6,2.6,0,0,1,92.147,78.129Z" transform="translate(-26.78 -16.718)" fill="#24285b"/>
    <path id="Path_12485" data-name="Path 12485" d="M90.99,85.16s0-1.047-.769-1.011-.829,1.568.233,1.75Z" transform="translate(-27.934 -21.652)" fill="#f4a28c"/>
    <path id="Path_12486" data-name="Path 12486" d="M97.577,85.18l.713,1.077a.435.435,0,0,1-.308.673l-1.042.182Z" transform="translate(-31.538 -22.162)" fill="#f4a28c"/>
    <path id="Path_12487" data-name="Path 12487" d="M91.91,90.436a3.241,3.241,0,0,1-1.78-.506A3.641,3.641,0,0,0,92.34,92.7Z" transform="translate(-28.172 -24.51)" fill="#ce8172" opacity="0.31"/>
    <path id="Path_12488" data-name="Path 12488" d="M73.98,243a2.548,2.548,0,0,1-1.765,1.805c-1.355.243-1.6,1.608-.334,1.846s4.293-1.628,4.293-1.628l-.268-1.967Z" transform="translate(-18.742 -100.179)" fill="#fff"/>
    <path id="Path_12489" data-name="Path 12489" d="M118.255,243a2.548,2.548,0,0,0,1.765,1.805c1.355.243,1.6,1.608.334,1.846s-4.293-1.633-4.293-1.633l.268-1.967Z" transform="translate(-40.99 -100.179)" fill="#fff"/>
    <path id="Path_12490" data-name="Path 12490" d="M92.285,115.819a13.814,13.814,0,0,0-12.262-13.961c-6.659-.784-18.709-1.744-23.366.86-6.573,3.681,4.46,37.843,4.46,37.843H83.563S92.012,127.12,92.285,115.819Z" transform="translate(-10.591 -29.991)" fill="#4e499e"/>
    <path id="Path_12491" data-name="Path 12491" d="M68.455,110.23s5.057,1.4,3.7,9.37h6.573l.106,8.717A19.245,19.245,0,0,0,89.045,145.07l.061.03H66.66l-.88-2.852Z" transform="translate(-16.134 -34.545)" opacity="0.08"/>
    <path id="Path_12492" data-name="Path 12492" d="M53.14,111.064a6.068,6.068,0,0,0-8.717-6.012c-4.642,2.311-9.527,6.917-10.74,16.095-2.164,16.328,2.331,20.838,10.76,16.044C49.969,134.046,52.235,120.216,53.14,111.064Z" transform="translate(0 -31.678)" fill="#4e499e"/>
    <path id="Path_12493" data-name="Path 12493" d="M53.14,111.064a6.068,6.068,0,0,0-8.717-6.012c-4.642,2.311-9.527,6.917-10.74,16.095-2.164,16.328,2.331,20.838,10.76,16.044C49.969,134.046,52.235,120.216,53.14,111.064Z" transform="translate(0 -31.678)" fill="#fff" opacity="0.46"/>
    <rect id="Rectangle_1079" data-name="Rectangle 1079" width="20.358" height="25.283" transform="translate(37.96 82.43)" fill="#ff4c00"/>
    <path id="Path_12494" data-name="Path 12494" d="M55.49,121.375s1.426-3.17,4.278-1.977S60.678,124.358,55.49,121.375Z" transform="translate(-11.047 -38.944)" fill="#f4a28c"/>
    <rect id="Rectangle_1080" data-name="Rectangle 1080" width="12.839" height="9.334" transform="translate(41.333 86.708)" fill="#fff" opacity="0.58"/>
    <rect id="Rectangle_1081" data-name="Rectangle 1081" width="12.839" height="3.282" transform="translate(41.333 99.072)" fill="#fff"/>
    <path id="Path_12495" data-name="Path 12495" d="M67.52,179.2l3.641,32.362h4.151s-1.087-24.453,5.163-28.428,9.491-3.954,9.491-3.954Z" transform="translate(-16.994 -68.63)" fill="#24285b"/>
    <path id="Path_12496" data-name="Path 12496" d="M97.574,179.22l5.562,32.362H99.248s-4.8-24.054-16.338-27.811A43.335,43.335,0,0,1,97.574,179.22Z" transform="translate(-24.602 -68.65)" fill="#24285b"/>
    <rect id="Rectangle_1082" data-name="Rectangle 1082" width="24.115" height="7.671" transform="translate(172.823 137.395)" fill="#b3aeff"/>
    <rect id="Rectangle_1083" data-name="Rectangle 1083" width="24.115" height="7.671" transform="translate(167.549 129.891)" fill="#b3aeff" opacity="0.43"/>
    <path id="Path_12497" data-name="Path 12497" d="M328.161,199.586s-4.814-1.315-5.861-5.795c0,0,7.458-1.517,7.671,6.189Z" transform="translate(-142.944 -75.794)" fill="#6c63ff" opacity="0.58"/>
    <path id="Path_12498" data-name="Path 12498" d="M333.466,194.37s-3.363-5.314-.4-10.28a8.557,8.557,0,0,1,3.15,10.3Z" transform="translate(-147.663 -71.057)" fill="#6c63ff" opacity="0.73"/>
    <path id="Path_12499" data-name="Path 12499" d="M336.77,197.9s1.775-5.613,7.145-6.675c0,0,1.011,3.646-3.479,6.69Z" transform="translate(-150.097 -74.587)" fill="#6c63ff"/>
    <path id="Path_12500" data-name="Path 12500" d="M329.87,204.18l.971,6.675,6.144.025.905-6.665Z" transform="translate(-146.686 -80.989)" fill="#24285b"/>
    <rect id="Rectangle_1084" data-name="Rectangle 1084" width="70.225" height="104.933" transform="translate(107.235 40.35)" fill="#b3aeff"/>
    <rect id="Rectangle_1085" data-name="Rectangle 1085" width="58.13" height="73.851" rx="3" transform="translate(113.045 52.309)" fill="#fff"/>
    <rect id="Rectangle_1086" data-name="Rectangle 1086" width="19.69" height="2.392" rx="1" transform="translate(136.406 44.451)" opacity="0.12"/>
    <circle id="Ellipse_530" data-name="Ellipse 530" cx="2.599" cy="2.599" r="2.599" transform="translate(127.506 43.303)" fill="#e6e6e6"/>
    <path id="Path_12501" data-name="Path 12501" d="M205.874,118.29l-4.374,4.551a3.266,3.266,0,0,1-5.168-.592l-5.663-9.643a3.155,3.155,0,0,1-.344-.855c-.248-1.011-.925-3.54-1.679-3.838-.951-.354-1.188,1.982-1.188,1.982s-2.736-1.825-3.919,0c-.708,1.082,1.011,2.528,2.528,3.54a6.543,6.543,0,0,1,2.675,3.509c1.451,4.586,5,14.32,9.162,15.124,5.466,1.052,15.114-7.18,15.114-7.18Z" transform="translate(-74.267 -33.382)" fill="#f4a28c"/>
    <path id="Path_12502" data-name="Path 12502" d="M233.753,98.454s-17.41,2.816-15.271,14.846c1.547,8.712,6.068,8.09,5.855,14.735l-.1,4.222,18.517-.561s-1.178-8.333,1.138-14.259S252.563,96.871,233.753,98.454Z" transform="translate(-91.532 -28.665)" fill="#4e499e"/>
    <path id="Path_12503" data-name="Path 12503" d="M251.931,78.01l.809,10.5-5.82.03,1.75-7.651Z" transform="translate(-105.68 -18.617)" fill="#f4a28c"/>
    <path id="Path_12504" data-name="Path 12504" d="M244.75,103s-9.046,2.71-6.194,10.5,7.393,12.732,2.822,15.22S230,134.563,230,134.563h15.675l3.722-4.045,3.221-11.721Z" transform="translate(-97.316 -30.971)" opacity="0.09"/>
    <path id="Path_12505" data-name="Path 12505" d="M248.931,86.056a3.828,3.828,0,0,0,1.967-.966,6,6,0,0,1-2.528,3.636Z" transform="translate(-106.397 -22.117)" fill="#ce8172" opacity="0.31"/>
    <path id="Path_12506" data-name="Path 12506" d="M245.158,73.813a20.071,20.071,0,0,0,.131,5.34,1.613,1.613,0,0,0,1.942,1.209,3.567,3.567,0,0,0,2.852-2.614l1.011-2.781a2.882,2.882,0,0,0-1.193-3.115C248.137,70.506,245.275,71.861,245.158,73.813Z" transform="translate(-104.748 -15.305)" fill="#f4a28c"/>
    <path id="Path_12507" data-name="Path 12507" d="M226.594,164.871l-3.524,22.567h24.777l-2.731-23.129Z" transform="translate(-93.89 -61.279)" fill="#3f3d56"/>
    <path id="Path_12508" data-name="Path 12508" d="M251.9,80.76s.056-1.234.981-1.117.86,1.906-.4,2.023Z" transform="translate(-108.142 -19.42)" fill="#f4a28c"/>
    <path id="Path_12509" data-name="Path 12509" d="M243.986,80.27l-.925,1.214a.506.506,0,0,0,.3.814l1.224.263Z" transform="translate(-103.717 -19.734)" fill="#f4a28c"/>
    <path id="Path_12510" data-name="Path 12510" d="M248.257,73.4s-3.863,9.481-.769,11.3,8.6,1.421,9.339-2.619-3.231-5.057-3.267-10.7-10.9-5.254-11.013-2.023S248.257,73.4,248.257,73.4Z" transform="translate(-103.518 -13.179)" fill="#24285b"/>
    <path id="Path_12511" data-name="Path 12511" d="M239.7,101.963a4.627,4.627,0,0,1,6.842,1.067A24.777,24.777,0,0,1,250.583,118c-.632,11.241,1.78,18.052-9.982,15.524-8.6-1.846-19.013-15.918-19.013-15.918a3.759,3.759,0,0,1-.789-5.714c2.7-3.4,4.748,4.672,4.748,4.672s14.1,11.761,16.955,8.338C245,121.9,232.385,108.152,239.7,101.963Z" transform="translate(-92.262 -29.934)" fill="#f4a28c"/>
    <circle id="Ellipse_531" data-name="Ellipse 531" cx="4.404" cy="4.404" r="4.404" transform="translate(159.089 55.489)" fill="#68e1fd"/>
    <circle id="Ellipse_532" data-name="Ellipse 532" cx="4.404" cy="4.404" r="4.404" transform="translate(153.386 55.489)" fill="#68e1fd" opacity="0.32"/>
    <circle id="Ellipse_533" data-name="Ellipse 533" cx="7.676" cy="7.676" r="7.676" transform="translate(134.697 107.516)" fill="#b3aeff"/>
    <path id="Shape" d="M244.942,184.641a3.418,3.418,0,0,1-1.011-1.927.293.293,0,0,1,.086-.243l.647-.647a.283.283,0,0,0,.04-.359l-1.011-1.608a.293.293,0,0,0-.374-.106l-1.664.784a.283.283,0,0,0-.157.288,8.672,8.672,0,0,0,7.3,7.3.283.283,0,0,0,.288-.162l.784-1.659a.288.288,0,0,0-.106-.374l-1.638-1.011a.288.288,0,0,0-.359.04l-.652.652a.3.3,0,0,1-.243.081,3.4,3.4,0,0,1-1.927-1.011Z" transform="translate(-102.999 -68.898)" fill="#fff"/>
    <rect id="Rectangle_1087" data-name="Rectangle 1087" width="17.673" height="27.093" transform="translate(160.202 74.264)" fill="#707070" opacity="0.12"/>
    <rect id="Rectangle_1088" data-name="Rectangle 1088" width="34.521" height="27.093" transform="translate(162.194 72.08)" fill="#e6e6e6"/>
    <rect id="Rectangle_1089" data-name="Rectangle 1089" width="34.521" height="2.887" transform="translate(162.194 69.192)" fill="#b3b3b3"/>
    <path id="Path_12512" data-name="Path 12512" d="M300.962,104.66l-8.46,6.745s-7.939,7.964-2.958,13.172,12.242-2.417,12.242-2.417Z" transform="translate(-125.94 -31.791)" fill="#68e1fd"/>
    <path id="Path_12513" data-name="Path 12513" d="M300.962,104.66l-8.46,6.745s-7.939,7.964-2.958,13.172,12.242-2.417,12.242-2.417Z" transform="translate(-125.94 -31.791)" opacity="0.08"/>
    <rect id="Rectangle_1090" data-name="Rectangle 1090" width="0.976" height="6.316" transform="matrix(0.786, -0.618, 0.618, 0.786, 164.985, 75.929)" fill="#24285b"/>
    <path id="Path_12514" data-name="Path 12514" d="M296.869,116.881s1.315-1.552,2.5-1.042.875,2.867-1.188,2.908S296.869,116.881,296.869,116.881Z" transform="translate(-130.306 -37.267)" fill="#f4a28c"/>
    <path id="Path_12515" data-name="Path 12515" d="M321.562,82.47a12.387,12.387,0,0,0,.157,3.347,1.011,1.011,0,0,0,1.234.733,2.245,2.245,0,0,0,1.755-1.684l.607-1.76a1.815,1.815,0,0,0-.794-1.937A1.936,1.936,0,0,0,321.562,82.47Z" transform="translate(-142.555 -20.023)" fill="#f4a28c"/>
    <path id="Path_12516" data-name="Path 12516" d="M326.254,85.94l1.021,6.533-3.636.308.718-4.88Z" transform="translate(-143.607 -22.537)" fill="#f4a28c"/>
    <path id="Path_12517" data-name="Path 12517" d="M320.9,86.56l-.561.779a.324.324,0,0,0,.2.506l.769.147Z" transform="translate(-141.946 -22.844)" fill="#f4a28c"/>
    <path id="Path_12518" data-name="Path 12518" d="M324.462,91.238a2.4,2.4,0,0,0,1.183-.7,3.752,3.752,0,0,1-1.385,2.4Z" transform="translate(-143.913 -24.811)" fill="#ce8172" opacity="0.31"/>
    <path id="Path_12519" data-name="Path 12519" d="M306.967,128.031h13.946c4.43-6.973,14.431-25.535-1.891-29.171l-4.551.384s-8.98,2.64-8.621,11.084C306.163,117.134,306.75,125.174,306.967,128.031Z" transform="translate(-134.807 -28.924)" fill="#68e1fd"/>
    <path id="Path_12520" data-name="Path 12520" d="M307.485,133.316h13.789c1.911-3.939,7.807-17.7.167-23.766a7.747,7.747,0,0,0-3.969,7.256c.3,5.132-.546,6.973-5.84,6.381s-4.738,1.7-4.738,1.7Z" transform="translate(-135.32 -34.209)" opacity="0.08"/>
    <path id="Path_12521" data-name="Path 12521" d="M321.224,78.087s-1.138,2.791,1.077,3.034.814,1.739,2.119,1.962,2.791-2.943,1.517-4.551S321.861,76.8,321.224,78.087Z" transform="translate(-142.268 -18.224)" fill="#24285b"/>
    <path id="Path_12522" data-name="Path 12522" d="M324.47,109.19a3.337,3.337,0,0,1,5.618-2.8,17.9,17.9,0,0,1,5.471,11.21c1.32,11.018-2.559,21.854-19.609,4.349l1.734-2.023s8.475,5.85,10.978,4.849C330.579,124.026,325.239,116.1,324.47,109.19Z" transform="translate(-139.805 -32.19)" fill="#68e1fd"/>
    <path id="Path_12523" data-name="Path 12523" d="M324.47,109.19a3.337,3.337,0,0,1,5.618-2.8,17.9,17.9,0,0,1,5.471,11.21c1.32,11.018-2.559,21.854-19.609,4.349l1.734-2.023s8.475,5.85,10.978,4.849C330.579,124.026,325.239,116.1,324.47,109.19Z" transform="translate(-139.805 -32.19)" fill="#fff" opacity="0.46"/>
    <rect id="Rectangle_1091" data-name="Rectangle 1091" width="9.046" height="13.208" transform="translate(166.559 80.454) rotate(-7.21)" fill="#ffd200"/>
    <path id="Path_12524" data-name="Path 12524" d="M314.114,133.769s-3.509-1.694-2.655-2.968,3.939,1.482,3.939,1.482Z" transform="translate(-137.519 -44.548)" fill="#f4a28c"/>
    <rect id="Rectangle_1092" data-name="Rectangle 1092" width="22.178" height="23.316" transform="translate(107.326 108.76)" fill="#313131" opacity="0.09"/>
    <rect id="Rectangle_1093" data-name="Rectangle 1093" width="29.712" height="23.316" transform="translate(97.157 105.979)" fill="#f8f8f8"/>
    <rect id="Rectangle_1094" data-name="Rectangle 1094" width="29.712" height="2.978" transform="translate(97.157 103.005)" fill="#b3b3b3"/>
    <g id="Group_14334" data-name="Group 14334" transform="translate(101.199 100.158)">
      <path id="Path_12525" data-name="Path 12525" d="M173.585,204.544l.961-11.463s-4.7-.627-5.122-.506c-.258.066-.319,6.816-.324,11.979Z" transform="translate(-151.977 -175.402)" fill="#f4a28c"/>
      <path id="Path_12526" data-name="Path 12526" d="M193.576,159.347s-1.8-1.391-3.115-.3-.207,5.193-3.221,4.374c0,0,3.347,2.528,5.41-1.942Z" transform="translate(-180.18 -158.629)" fill="#24285b"/>
      <path id="Path_12527" data-name="Path 12527" d="M187.851,162.679s-1.188-.116-.774-1.745,1.755-1.628,2.154-1.224Z" transform="translate(-175.709 -159.052)" fill="#68e1fd"/>
      <path id="Path_12528" data-name="Path 12528" d="M185.489,162.471a8.717,8.717,0,0,1-.45,2.3.7.7,0,0,1-.925.379,1.573,1.573,0,0,1-1.042-1.34l-.238-1.274a1.269,1.269,0,0,1,.748-1.259,1.35,1.35,0,0,1,1.906,1.2Z" transform="translate(-169.863 -159.876)" fill="#f4a28c"/>
      <path id="Path_12529" data-name="Path 12529" d="M185.678,165.32l-.708,4.556,2.538.212-.49-3.317Z" transform="translate(-172.964 -161.936)" fill="#f4a28c"/>
      <path id="Path_12530" data-name="Path 12530" d="M182.766,165.51l.308.592a.222.222,0,0,1-.187.329h-.551Z" transform="translate(-167.226 -162.03)" fill="#f4a28c"/>
      <path id="Path_12531" data-name="Path 12531" d="M186.444,167.925a1.714,1.714,0,0,1-.794-.465,1.229,1.229,0,0,0,.935,1.416Z" transform="translate(-172.375 -162.994)" fill="#ce8172" opacity="0.31"/>
      <path id="Path_12532" data-name="Path 12532" d="M189.074,164.816s.071-.541-.339-.556-.506.758,0,.91Z" transform="translate(-176.264 -161.412)" fill="#f4a28c"/>
      <path id="Path_12533" data-name="Path 12533" d="M184.89,161.324a4,4,0,0,1-1.345-.1,2.706,2.706,0,0,1-1.659,1.846s-1.011-2.407.506-3.211c1.259-.673,2.2-1.279,3.13-.314a1.052,1.052,0,0,1-.632,1.775Z" transform="translate(-169.547 -158.835)" fill="#24285b"/>
      <path id="Path_12534" data-name="Path 12534" d="M187.015,164.442s0-.627-.506-.566-.551.794.056,1.123Z" transform="translate(-173.052 -161.22)" fill="#f4a28c"/>
      <path id="Path_12535" data-name="Path 12535" d="M184.517,195.532l.217-2.69a5.213,5.213,0,0,1,1.092-2.771c7.4-9.607-6.573-15.529-6.573-15.529l-2.528-.212c-13.713,3.079-8.6,15.17-5.011,21.2Z" transform="translate(-164.73 -166.39)" fill="#68e1fd"/>
      <path id="Path_12536" data-name="Path 12536" d="M192.038,200.659l.147-2.058s-.895-3.646-5.249-.622-6.8-.465-3.034-4.758a6.872,6.872,0,0,0,.678-8.52l-10.27,10.508,2.594,5.451Z" transform="translate(-172.251 -171.517)" opacity="0.08"/>
      <path id="Path_12537" data-name="Path 12537" d="M175.651,197.132h13.931a42,42,0,0,0,3.615-2.867h0c1.289-.349,1.891-2.528.809-2.832s-1.714,1.431-1.714,1.431-8.621,5.947-11.16,2.579c-.784-1.042.147-2.705.844-4.045,1.264-2.382,5.279-6.528,5.3-10.24a3.658,3.658,0,0,0-5.952-2.786c-3.216,2.528-7.736,6.852-5.972,17.41A12.2,12.2,0,0,0,175.651,197.132Z" transform="translate(-174.962 -167.99)" fill="#f4a28c"/>
      <path id="Path_12538" data-name="Path 12538" d="M182.533,173.382s-.4-1.072,1.6-1.391,3.651.465,3.034,1.916C187.19,173.908,185.729,175.187,182.533,173.382Z" transform="translate(-171.508 -165.199)" fill="#68e1fd"/>
      <path id="Path_12539" data-name="Path 12539" d="M182.533,173.382s-.4-1.072,1.6-1.391,3.651.465,3.034,1.916C187.19,173.908,185.729,175.187,182.533,173.382Z" transform="translate(-171.508 -165.199)" fill="#fff" opacity="0.46"/>
    </g>
    <circle id="Ellipse_534" data-name="Ellipse 534" cx="5.107" cy="5.107" r="5.107" transform="translate(137.24 130.67)" opacity="0.17"/>
  </g>
</svg>
