<svg xmlns="http://www.w3.org/2000/svg" width="209.186" height="141.11" viewBox="0 0 209.186 141.11">
  <g id="illustration" transform="translate(0.023 -23.319)">
    <ellipse id="Ellipse_493" data-name="Ellipse 493" cx="42.384" cy="6.969" rx="42.384" ry="6.969" transform="translate(124.396 150.492)" fill="#6c63ff" opacity="0.1"/>
    <path id="Path_12429" data-name="Path 12429" d="M980.015,699.112a20.828,20.828,0,0,1-2.689,5.917,32.005,32.005,0,0,1-10.74,9.64c-.292.174-.589.344-.885.511h-2.96l-.1-.236v0l-.12-.273-.015-.032-.006.032-.118.511h-1.453c-.12-.17-.239-.34-.355-.511q-.255-.377-.488-.763a12.378,12.378,0,0,1-.731-1.4c-.026-.054-.047-.108-.069-.161l.1-.105-.4-1.758.808-.133-.886-2.732c.032-.1.069-.2.108-.3a6.8,6.8,0,0,1,2.536-2.985,38.635,38.635,0,0,1,3.684-2.147c.572-.32,1.135-.658,1.683-1.015v0q1.051-.68,2.04-1.455a.321.321,0,0,0,.032-.024.216.216,0,0,0,.026-.021,30.284,30.284,0,0,0,7.374-8.367h0c.064-.1.125-.206.185-.312v0a29.289,29.289,0,0,0,2.023-4.223v0c.043-.107.082-.215.122-.322q.084.142.161.284h0a0,0,0,0,1,0,0A16.463,16.463,0,0,1,980.015,699.112Z" transform="translate(-782.831 -558.613)" fill="#f0f0f0"/>
    <path id="Path_12430" data-name="Path 12430" d="M992.53,686.326a26.083,26.083,0,0,1-.617,5.919,25.473,25.473,0,0,1-.722,2.631,26.078,26.078,0,0,1-2.177,4.857c-.049.084-.1.165-.148.247v0a22.015,22.015,0,0,1-1.236,1.861,10.255,10.255,0,0,1-2.45,2.463,6.467,6.467,0,0,1-2.575,1c-.172.032-.348.056-.526.077-.712.084-1.447.116-2.151.266a4.7,4.7,0,0,0-1.036.333,3.951,3.951,0,0,0-2.053,2.807c-.049.206-.088.415-.118.623-.234,1.6.024,3.265-.11,4.868-.015.17-.034.342-.058.512h-.159l-.1-.236v0c.011-.09.019-.181.028-.273a20.681,20.681,0,0,0,.019-2.366c-.009-.355-.015-.711-.011-1.068,0-.286.015-.572.036-.855v0c.015-.176.032-.35.056-.524a6.785,6.785,0,0,1,.391-1.558,3.9,3.9,0,0,1,2.218-2.3,5.811,5.811,0,0,1,.961-.269c.72-.138,1.464-.172,2.188-.262.078-.009.155-.019.23-.032.1-.015.191-.032.286-.049a6.16,6.16,0,0,0,2.614-1.133,11.153,11.153,0,0,0,2.36-2.562c.352-.505.688-1.021,1-1.552v0h0l.045-.075,0,0a25.7,25.7,0,0,0,2.893-7.344c.019-.094.041-.189.062-.284a25.985,25.985,0,0,0,.574-5.674v0c0-.09,0-.178,0-.269,0-.185.282-.226.286-.041,0,.09,0,.181,0,.271h0Z" transform="translate(-796.483 -558.222)" fill="#fff"/>
    <path id="Path_12431" data-name="Path 12431" d="M1033.932,745.913a3.873,3.873,0,0,0,4.878-1.164c.109-.15-.119-.327-.229-.177a3.586,3.586,0,0,1-4.539,1.074C1033.877,745.561,1033.768,745.829,1033.932,745.913Z" transform="translate(-841.672 -604.213)" fill="#fff"/>
    <path id="Path_12432" data-name="Path 12432" d="M1003.738,754.463a7.465,7.465,0,0,1,.264-5.433c.076-.17-.191-.279-.267-.11a7.763,7.763,0,0,0-.264,5.654c.06.176.326.064.266-.111Z" transform="translate(-817.5 -607.604)" fill="#fff"/>
    <path id="Path_12433" data-name="Path 12433" d="M1041.724,708.909a2.192,2.192,0,0,1-1.509-1.431c-.057-.177-.324-.064-.266.111a2.456,2.456,0,0,0,1.666,1.587.149.149,0,0,0,.188-.079A.145.145,0,0,0,1041.724,708.909Z" transform="translate(-846.453 -575.066)" fill="#fff"/>
    <path id="Path_12434" data-name="Path 12434" d="M954.907,688.468v0a28.215,28.215,0,0,1-.574,4.565v0c-.017.1-.041.2-.062.305a39.652,39.652,0,0,1-2.173,6.794q-.384.929-.8,1.838c-.077.172-.157.342-.239.512h-.318l-.1-.236v0l-.12-.273-.015-.032-.006.032-.118.512H947.3l-.6-.512-.87-.746,1.216-1.328.2-.219.03-.032.1-.105-.4-1.758.808-.133-.885-2.732-.419-1.292-.105-.325-.613-1.889-1.848.346-.3-1.053a29.22,29.22,0,0,0,1.38-3.957c0-.011.006-.019.009-.03a30.428,30.428,0,0,0,.864-11.168v0c-.013-.12-.028-.243-.045-.361v0a28.749,28.749,0,0,0-.928-4.587c-.03-.114-.065-.226-.1-.337l.294.127,0,0h0c.157.069.314.142.466.219a16.6,16.6,0,0,1,7.9,8.982l.013.03a20.713,20.713,0,0,1,1.412,6.325A24.637,24.637,0,0,1,954.907,688.468Z" transform="translate(-770.827 -545.918)" fill="#f0f0f0"/>
    <path id="Path_12435" data-name="Path 12435" d="M961.89,809.946h-.34c-.107-.174-.224-.344-.34-.512q-.277-.39-.572-.763c-.17-.215-.34-.428-.509-.641s-.35-.443-.52-.671l.2-.219c.032.043.064.086.1.129.55.724,1.146,1.421,1.655,2.164C961.678,809.6,961.787,809.772,961.89,809.946Z" transform="translate(-783.388 -653.379)" fill="#fff"/>
    <path id="Path_12436" data-name="Path 12436" d="M948.657,669.89c.056.071.114.144.168.217q.629.816,1.189,1.683a25.359,25.359,0,0,1,1.767,3.192c.041.086.082.174.12.262a25.634,25.634,0,0,1,2.115,7.617c0,.026.006.049.009.075q.106.922.138,1.851a11.129,11.129,0,0,1-.342,3.465c-.043.148-.09.294-.142.436a5.866,5.866,0,0,1-.484,1,6.011,6.011,0,0,1-.46.664c-.1.129-.206.256-.318.378-.065.071-.131.142-.2.213-.056.054-.11.11-.166.163-.58.563-1.221,1.085-1.745,1.707l.105.325a17.437,17.437,0,0,1,1.743-1.73,8.144,8.144,0,0,0,1-1.135c.039-.056.08-.112.116-.17a5.74,5.74,0,0,0,.514-.922c.073-.161.14-.327.2-.5a10.292,10.292,0,0,0,.473-3.439,22.23,22.23,0,0,0-.133-2.233c-.009-.1-.019-.191-.032-.288a26.349,26.349,0,0,0-4.144-11.245q-.532-.809-1.128-1.58c-.052-.071-.105-.14-.161-.211C948.747,669.54,948.543,669.744,948.657,669.89Z" transform="translate(-774.763 -545.427)" fill="#fff"/>
    <path id="Path_12437" data-name="Path 12437" d="M973.878,717.35a3.873,3.873,0,0,0,3.194-3.866.145.145,0,0,0-.289,0,3.586,3.586,0,0,1-2.978,3.59c-.183.032-.109.311.073.279Z" transform="translate(-794.449 -579.741)" fill="#fff"/>
    <path id="Path_12438" data-name="Path 12438" d="M954.4,751.209a7.464,7.464,0,0,1-3.06-4.5c-.041-.181-.321-.108-.279.073a7.764,7.764,0,0,0,3.194,4.673c.154.1.3-.145.146-.249Z" transform="translate(-776.669 -605.856)" fill="#fff"/>
    <path id="Path_12439" data-name="Path 12439" d="M955.391,693.414a2.192,2.192,0,0,1-2.067-.234c-.153-.107-.3.143-.146.249a2.456,2.456,0,0,0,2.286.264.149.149,0,0,0,.1-.176A.145.145,0,0,0,955.391,693.414Z" transform="translate(-778.288 -563.891)" fill="#fff"/>
    <path id="Path_12440" data-name="Path 12440" d="M275.726,235.189H139.821a.218.218,0,1,1,0-.436H275.726a.218.218,0,1,1,0,.437Z" transform="translate(-139.625 -204.013)" fill="#cacaca"/>
    <ellipse id="Ellipse_502" data-name="Ellipse 502" cx="2.348" cy="2.401" rx="2.348" ry="2.401" transform="translate(2.652 23.319)" fill="#3f3d56"/>
    <ellipse id="Ellipse_503" data-name="Ellipse 503" cx="2.348" cy="2.401" rx="2.348" ry="2.401" transform="translate(10.764 23.319)" fill="#3f3d56"/>
    <ellipse id="Ellipse_504" data-name="Ellipse 504" cx="2.348" cy="2.401" rx="2.348" ry="2.401" transform="translate(18.876 23.319)" fill="#3f3d56"/>
    <path id="Path_12441" data-name="Path 12441" d="M727.682,203H721.92a.436.436,0,1,0,0,.873h5.762a.436.436,0,1,0,0-.873Z" transform="translate(-596.442 -179.085)" fill="#3f3d56"/>
    <path id="Path_12442" data-name="Path 12442" d="M727.682,210.619H721.92a.436.436,0,1,0,0,.873h5.762a.436.436,0,1,0,0-.873Z" transform="translate(-596.442 -185.067)" fill="#3f3d56"/>
    <path id="Path_12443" data-name="Path 12443" d="M727.682,218.229H721.92a.436.436,0,1,0,0,.873h5.762a.436.436,0,1,0,0-.873Z" transform="translate(-596.442 -191.041)" fill="#3f3d56"/>
    <path id="Path_12444" data-name="Path 12444" d="M257.735,278.159h-6.1a77.229,77.229,0,0,0-7.189,21.5h13.291a3.218,3.218,0,0,0,3.224-3.224V281.381A3.226,3.226,0,0,0,257.735,278.159Z" transform="translate(-221.933 -238.091)" fill="#ccc"/>
    <path id="Path_12445" data-name="Path 12445" d="M403.834,278.159H376.188a3.226,3.226,0,0,0-3.224,3.222v15.058a3.228,3.228,0,0,0,3.224,3.224h27.647a3.228,3.228,0,0,0,3.224-3.224V281.381A3.226,3.226,0,0,0,403.834,278.159Z" transform="translate(-322.83 -238.091)" fill="#ccc"/>
    <path id="Path_12446" data-name="Path 12446" d="M614.144,278.159H586.5a3.226,3.226,0,0,0-3.224,3.222v15.058a3.228,3.228,0,0,0,3.224,3.224h27.647a3.228,3.228,0,0,0,3.224-3.224V281.381a3.226,3.226,0,0,0-3.224-3.222Z" transform="translate(-487.938 -238.091)" fill="#ccc"/>
    <path id="Path_12447" data-name="Path 12447" d="M253.362,425.159H238.956q-.081,1.78-.082,3.579a77.946,77.946,0,0,0,2.076,17.925h12.412a3.228,3.228,0,0,0,3.224-3.224V428.381A3.226,3.226,0,0,0,253.362,425.159Z" transform="translate(-217.56 -353.496)" fill="#ccc"/>
    <path id="Path_12448" data-name="Path 12448" d="M403.834,425.159H376.188a3.226,3.226,0,0,0-3.224,3.222v15.058a3.228,3.228,0,0,0,3.224,3.224h27.647a3.228,3.228,0,0,0,3.224-3.224V428.381A3.226,3.226,0,0,0,403.834,425.159Z" transform="translate(-322.83 -353.496)" fill="#ccc"/>
    <path id="Path_12449" data-name="Path 12449" d="M614.144,425.159H586.5a3.226,3.226,0,0,0-3.224,3.222v15.058a3.228,3.228,0,0,0,3.224,3.224h27.647q.132,0,.264-.013a3.073,3.073,0,0,0,1-.247,3.228,3.228,0,0,0,1.958-2.934V428.381a3.226,3.226,0,0,0-3.224-3.222Z" transform="translate(-487.938 -353.496)" fill="#ccc"/>
    <circle id="Ellipse_505" data-name="Ellipse 505" cx="6.396" cy="6.396" r="6.396" transform="translate(29.983 52.376)" fill="#6c63ff"/>
    <path id="Path_12450" data-name="Path 12450" d="M295.936,356.352a.711.711,0,0,1-.569-.285l-1.745-2.327a.711.711,0,0,1,1.138-.854l1.142,1.522,2.932-4.4a.711.711,0,1,1,1.184.789l-3.49,5.235a.712.712,0,0,1-.572.317Z" transform="translate(-260.43 -294.25)" fill="#fff"/>
    <circle id="Ellipse_506" data-name="Ellipse 506" cx="6.396" cy="6.396" r="6.396" transform="translate(76.623 53.021)" fill="#6c63ff"/>
    <path id="Path_12451" data-name="Path 12451" d="M512.937,359.352a.712.712,0,0,1-.569-.285l-1.745-2.327a.711.711,0,1,1,1.138-.854l1.142,1.522,2.932-4.4a.711.711,0,1,1,1.184.789l-3.49,5.235a.712.712,0,0,1-.572.317Z" transform="translate(-430.79 -296.606)" fill="#fff"/>
    <path id="Path_12452" data-name="Path 12452" d="M941.692,424.925l-2-19.379-.528-7.976,5.6-1.013s.839,5.483,1.573,8.7c.724,3.175-.965,19.242-1.01,19.666a2.726,2.726,0,1,1-3.637,0Z" transform="translate(-767.334 -331.042)" fill="#a0616a"/>
    <path id="Path_12453" data-name="Path 12453" d="M720.651,677.97l-2.779.635L714.1,668.189l4.1-.938Z" transform="translate(-560.635 -526.402)" fill="#a0616a"/>
    <path id="Path_12454" data-name="Path 12454" d="M856.388,790.624l-.709.161-.073.017-3.243-.529-.095-.015-1.354,1.616a3.579,3.579,0,0,0-2.691,4.286l0,.019.024.095.413-.095,8.548-1.956Z" transform="translate(-695.87 -640.125)" fill="#2f2e41"/>
    <path id="Path_12455" data-name="Path 12455" d="M806.3,685.414h-2.851l-1.356-11H806.3Z" transform="translate(-629.716 -532.028)" fill="#a0616a"/>
    <path id="Path_12456" data-name="Path 12456" d="M930.295,796.4l-.249-.1-2.794-1.137-.09-.037-1.679,1.275a3.577,3.577,0,0,0-3.579,3.576v.116l7.869,0H931.1V796.4Z" transform="translate(-753.786 -643.948)" fill="#2f2e41"/>
    <path id="Path_12457" data-name="Path 12457" d="M844.51,529.387l2.4,22.779s3.192,22.808,2.593,25.955.15,3.6.15,3.6l-5.47-.39s.15-1.948-.749-2.847-.45-3.6-.45-3.6l-10.61-37.1-6.444,19.482s4.071,15.8,3.921,16.1,2.579,6.878,2.579,6.878l-6.106,2.025s.749-2.4-.3-3.147-1.948-.15-1.049-1.5-7.084-11.254-6.909-17.637c.053-1.92.117-3.981.193-6.092.406-11.171,1.173-23.758,2.575-24.5C823.38,528.038,844.51,529.387,844.51,529.387Z" transform="translate(-672.262 -434.852)" fill="#2f2e41"/>
    <circle id="Ellipse_507" data-name="Ellipse 507" cx="5.897" cy="5.897" r="5.897" transform="translate(154.995 36.62)" fill="#a0616a"/>
    <path id="Path_12458" data-name="Path 12458" d="M939.489,370.629l-8.008,2.033.056-2.248-.608-.645-1.214-6.361-1.289-16.469,4.425,2.347.005,0a11.963,11.963,0,0,1,1.919,2.841c1.668,3.391,3.271,10.861,4.109,15.2a.474.474,0,0,0,.16.23,2.453,2.453,0,0,1,.445,3.068Z" transform="translate(-758.906 -292.088)" fill="#3f3d56"/>
    <path id="Path_12459" data-name="Path 12459" d="M752.848,417.789S763.9,406.136,764,405.916c.772-5.863,2.993-8.45,3.326-8.169l5.732,1.986s-1.7,5.4-2.859,8.606c-1.1,3.064-13.815,10.549-14.027,10.918a2.726,2.726,0,1,1-3.327-1.468Z" transform="translate(-619.588 -331.96)" fill="#a0616a"/>
    <path id="Path_12460" data-name="Path 12460" d="M820.577,349.612s-4.963-2.432-6.887,2.345c-1.055,2.7-3.754,9.242-5.1,13.27a.3.3,0,0,1-.037.072,3.275,3.275,0,0,0-.558,1.807.62.62,0,0,1-.014.14s5.453,1.062,7.075,3.921l.643-.7.114-.489Z" transform="translate(-664.349 -293.7)" fill="#3f3d56"/>
    <path id="Path_12461" data-name="Path 12461" d="M853.6,371.939c-11.421,2.359-26.556-1.7-26.556-1.7l4.038-17.5-1.435-18.316a4.985,4.985,0,0,1,3.085-5.083l2.74-1.026,2.265-3.243,6.47.212,2.586,3.4,2.041,1.083,4.425,2.347.02.01v.01l-1.389,13.47-.837,8.122s2.544,9.135,2.022,10.346-.068.625.058,1.272.514.688.573,1.961S853.6,371.939,853.6,371.939Z" transform="translate(-679.312 -274.921)" fill="#3f3d56"/>
    <path id="Path_12462" data-name="Path 12462" d="M864.433,258.567c-.466-.46.236-1.677.1-2.318-.152-.735-.962-.757-1.155-1.482a2.479,2.479,0,0,0-1.808-1.452,11.691,11.691,0,0,0-6.093-.279,23.26,23.26,0,0,0-2.636.812c-.595.209-.021-.36-.616-.151a.933.933,0,0,0-.558.37c-.107.2.037.526.262.485l-2.179.961,1.222,1.28a.852.852,0,0,0-.968,1.083,1.224,1.224,0,0,0,.936.648c.654.127.158.75.824.738s5.313-1.378,5.637-.8c.231.415.205.964.535,1.306.421.437,1.157.277,1.694-.007a3.076,3.076,0,0,1,1.684-.608c.63.071,1.106,1.235,1.261,1.85a4.734,4.734,0,0,1-.042,1.888c-.13.822-1.428,1.645-1.558,2.467,1.441.4,2.987-.869,3.556-3.074C864.48,260.893,865.427,259.547,864.433,258.567Z" transform="translate(-697.144 -218.15)" fill="#2f2e41"/>
    <circle id="Ellipse_508" data-name="Ellipse 508" cx="6.396" cy="6.396" r="6.396" transform="translate(121.329 83.541)" fill="#6c63ff"/>
    <path id="Path_12463" data-name="Path 12463" d="M720.937,501.352a.711.711,0,0,1-.569-.285l-1.745-2.327a.711.711,0,0,1,1.138-.854l1.142,1.522,2.932-4.4a.711.711,0,1,1,1.184.789l-3.49,5.235a.712.712,0,0,1-.572.317Z" transform="translate(-594.084 -408.086)" fill="#fff"/>
  </g>
</svg>
