<svg xmlns="http://www.w3.org/2000/svg" width="137.556" height="179.348" viewBox="0 0 137.556 179.348">
  <g id="ventout_empty" transform="translate(-75.378 -41.986)">
    <path id="Path_12322" data-name="Path 12322" d="M462.783,628.266a13.719,13.719,0,0,1-13.248-2.333c-4.64-3.895-6.1-10.311-7.279-16.253l-3.5-17.573,7.33,5.048c5.272,3.63,10.662,7.376,14.312,12.634s5.243,12.435,2.311,18.124" transform="translate(-349.434 -432.681)" fill="#e6e6e6"/>
    <path id="Path_12323" data-name="Path 12323" d="M478.894,678.5c.742-5.4,1.5-10.878.985-16.341a25.7,25.7,0,0,0-4.955-13.474,22.417,22.417,0,0,0-5.751-5.211c-.575-.363-1.1.549-.532.91a21.307,21.307,0,0,1,8.429,10.17,34.152,34.152,0,0,1,1.814,14.713c-.191,3-.6,5.977-1,8.952a.546.546,0,0,0,.368.648A.53.53,0,0,0,478.894,678.5Z" transform="translate(-366.171 -461.643)" fill="#f2f2f2"/>
    <path id="Path_12324" data-name="Path 12324" d="M436.923,687.9a10.1,10.1,0,0,1-8.8,4.542c-4.454-.212-8.168-3.32-11.511-6.272l-9.888-8.73,6.544-.313c4.706-.225,9.534-.435,14.016,1.016s8.616,4.944,9.436,9.584" transform="translate(-331.346 -480.598)" fill="#e6e6e6"/>
    <path id="Path_12325" data-name="Path 12325" d="M468.92,710.033c-3.571-6.319-7.713-13.341-15.114-15.586a16.865,16.865,0,0,0-6.357-.657c-.675.058-.507,1.1.167,1.041a15.67,15.67,0,0,1,10.145,2.684,26.368,26.368,0,0,1,6.973,7.525c1.155,1.758,2.189,3.591,3.224,5.422C468.288,711.047,469.254,710.624,468.92,710.033Z" transform="translate(-354.1 -490.065)" fill="#f2f2f2"/>
    <path id="Path_12326" data-name="Path 12326" d="M563.454,378.022,485.6,442.549a4.8,4.8,0,0,1-6.751-.632l-32.82-39.6a4.8,4.8,0,0,1,.632-6.751l77.855-64.526a4.8,4.8,0,0,1,6.751.632l32.82,39.6a4.8,4.8,0,0,1-.632,6.751Z" transform="translate(-352.92 -284.636)" fill="#ccc"/>
    <path id="Path_12327" data-name="Path 12327" d="M565.471,381.217,489.406,444.26a2.473,2.473,0,0,1-3.478-.326l-31.336-37.809a2.472,2.472,0,0,1,.326-3.478L530.983,339.6a2.473,2.473,0,0,1,3.478.326L565.8,377.739A2.473,2.473,0,0,1,565.471,381.217Z" transform="translate(-358.057 -289.773)" fill="#fff"/>
    <path id="Path_12328" data-name="Path 12328" d="M697.806,452.918l-15.645-1.464,11.2-8.813,6.032,7.278a1.808,1.808,0,0,1,.21,2.029,1.864,1.864,0,0,1-.458.567A1.811,1.811,0,0,1,697.806,452.918Z" transform="translate(-486.885 -348.278)" fill="#ccc"/>
    <path id="Path_12329" data-name="Path 12329" d="M591.07,396.538l-38.48,31.893a2.325,2.325,0,1,1-2.967-3.58l38.48-31.893a2.325,2.325,0,0,1,2.967,3.58Z" transform="translate(-411.565 -319.92)" fill="#ccc"/>
    <path id="Path_12330" data-name="Path 12330" d="M564.058,402.918l-25.952,21.509a2.325,2.325,0,0,1-2.967-3.58l25.952-21.509a2.325,2.325,0,0,1,2.967,3.579Z" transform="translate(-403.387 -323.523)" fill="#ccc"/>
    <circle id="Ellipse_487" data-name="Ellipse 487" cx="7.264" cy="7.264" r="7.264" transform="translate(113.195 108.855)" fill="#595959"/>
    <circle id="Ellipse_488" data-name="Ellipse 488" cx="2.325" cy="2.325" r="2.325" transform="translate(175.919 96.909)" fill="#e6e6e6"/>
    <circle id="Ellipse_489" data-name="Ellipse 489" cx="2.325" cy="2.325" r="2.325" transform="translate(182.183 91.717)" fill="#e6e6e6"/>
    <circle id="Ellipse_490" data-name="Ellipse 490" cx="2.325" cy="2.325" r="2.325" transform="translate(188.447 86.525)" fill="#e6e6e6"/>
    <path id="Path_12331" data-name="Path 12331" d="M461.2,529.51h5.337l2.539-20.585H461.2Z" transform="translate(-307.476 -313.59)" fill="#ffb8b8"/>
    <path id="Path_12332" data-name="Path 12332" d="M583.571,717.884h10.51a6.7,6.7,0,0,1,6.7,6.7v.217H583.571Z" transform="translate(-431.211 -503.707)" fill="#2f2e41"/>
    <path id="Path_12333" data-name="Path 12333" d="M417.2,529.51h5.337l2.539-20.585H417.2Z" transform="translate(-282.629 -313.59)" fill="#ffb8b8"/>
    <path id="Path_12334" data-name="Path 12334" d="M539.571,717.884h10.51a6.7,6.7,0,0,1,6.7,6.7v.217H539.571Z" transform="translate(-406.364 -503.707)" fill="#2f2e41"/>
    <path id="Path_12335" data-name="Path 12335" d="M545.279,595.6H540.74a1.95,1.95,0,0,1-1.957-1.888l-.143-3.97c-1.147-31.751-2.334-64.583,5.013-79.341l.058-.116,24.325-.88,4.884,44.8a19.413,19.413,0,0,1-.227,5.73l-6.456,34.018a1.958,1.958,0,0,1-2,1.593l-5.1-.166a1.96,1.96,0,0,1-1.873-2.152l4-31.463a10.754,10.754,0,0,0-.363-4.042l-4.98-17.41a.653.653,0,0,0-1.275.09l-7.433,53.511A1.967,1.967,0,0,1,545.279,595.6Z" transform="translate(-405.356 -385.978)" fill="#2f2e41"/>
    <circle id="Ellipse_491" data-name="Ellipse 491" cx="10.691" cy="10.691" r="10.691" transform="translate(132.141 57.255)" fill="#ffb8b8"/>
    <path id="Path_12336" data-name="Path 12336" d="M565.523,458.862H543.4a1.959,1.959,0,0,1-1.938-2.242l1.093-7.486-6.418-17.653a12.992,12.992,0,0,1,10.451-17.311h0a12.942,12.942,0,0,1,13.5,7.32l1.41,3,5.949,32.056a1.959,1.959,0,0,1-1.926,2.316Z" transform="translate(-403.983 -332.131)" fill="#9c21ee"/>
    <path id="Path_12337" data-name="Path 12337" d="M489.855,498.091a4.676,4.676,0,0,0,3.241-6.4l17.239-38.948-9.861-2.484-13.845,39.065a4.7,4.7,0,0,0,3.226,8.763Z" transform="translate(-375.017 -352.582)" fill="#ffb8b8"/>
    <path id="Path_12338" data-name="Path 12338" d="M525.051,446.429l-9.591-4.49a2.1,2.1,0,0,1-.859-3.056l5.829-8.8a5.823,5.823,0,1,1,10.533,4.968l-3.014,10.083a2.1,2.1,0,0,1-2.9,1.3Z" transform="translate(-392.067 -339.298)" fill="#9c21ee"/>
    <path id="Path_12339" data-name="Path 12339" d="M616.337,325.617a4.676,4.676,0,0,1-3.835,6.059l-24.625,34.752-7.183-7.2,26.464-31.9a4.7,4.7,0,0,1,9.179-1.716Z" transform="translate(-429.587 -280.332)" fill="#ffb8b8"/>
    <path id="Path_12340" data-name="Path 12340" d="M586.528,404.172a2.1,2.1,0,0,1-.537,1.661l-7.117,7.752a5.823,5.823,0,0,1-9.662-6.5l4.576-9.515a2.1,2.1,0,0,1,3.066-.827l8.768,5.939A2.093,2.093,0,0,1,586.528,404.172Z" transform="translate(-422.542 -322.155)" fill="#9c21ee"/>
    <path id="Path_12341" data-name="Path 12341" d="M545.391,355.3a11,11,0,0,0-.4-2.862,12.929,12.929,0,0,0-14.463-9.227,13.806,13.806,0,0,0-3.817-.534h0a13.765,13.765,0,0,0-13.6,11.652l-5.155,33.185h27.859l4.5-28.959a13.823,13.823,0,0,0,.117-3.254Z" transform="translate(-388.511 -291.827)" fill="#2f2e41"/>
    <path id="Path_12342" data-name="Path 12342" d="M553.784,733.2H461.935a.435.435,0,1,1,0-.87h91.849a.435.435,0,1,1,0,.87Z" transform="translate(-362.278 -511.863)" fill="#ccc"/>
  </g>
</svg>
